<svg width="124" height="41" viewBox="0 0 124 41" fill="none" xmlns="http://www.w3.org/2000/svg">
<g clip-path="url(#clip0_1262_1566)">
<path d="M20.0918 21.894C20.1645 20.6583 20.7961 19.5666 21.7455 18.7952C22.6755 18.0362 23.931 17.5699 25.2979 17.5699C26.6638 17.5699 27.9193 18.0362 28.8503 18.7952C29.7997 19.5666 30.4303 20.6583 30.504 21.894C30.5718 23.1641 30.0438 24.3445 29.1099 25.2207C28.1605 26.1103 26.8101 26.67 25.2979 26.67C23.7866 26.67 22.4304 26.1103 21.481 25.2207C20.551 24.3454 20.0192 23.1641 20.0918 21.894Z" fill="#235785"/>
<path d="M11.8052 24.4007C11.8169 24.8851 11.9777 25.8234 12.215 26.5614C12.7404 28.1495 13.6146 29.6042 14.7754 30.8225C15.9999 32.1259 17.5083 33.1728 19.2501 33.9175C21.1059 34.7016 23.106 35.1008 25.1255 35.0903C27.1467 35.0934 29.1468 34.6864 31.001 33.8946C32.6954 33.1759 34.2195 32.1183 35.4766 30.7891C36.6663 29.5153 37.5236 28.0736 38.0332 26.5204C38.285 25.7347 38.4459 24.9376 38.5108 24.1366C38.6938 21.7915 38.093 19.4517 36.8 17.4737C36.0091 16.2537 35.0017 15.1837 33.8259 14.3147H33.8298L21.7882 5.41679C21.7766 5.40916 21.7688 5.39772 21.7572 5.39486C20.9648 4.80942 19.6366 4.80942 18.7676 5.39486C17.8909 5.98602 17.7921 6.96621 18.5729 7.58503H18.569L23.591 11.5182L8.28383 11.5325H8.26445C6.99733 11.5325 5.78058 12.3334 5.54226 13.3431C5.29426 14.371 6.15161 15.2234 7.46814 15.2272V15.2349L15.2278 15.2196L1.38148 25.4486C1.36193 25.4588 1.34371 25.4713 1.32723 25.4858C0.0223257 26.4469 -0.402956 28.0478 0.420482 29.0614C1.25458 30.0893 3.03126 30.0931 4.35167 29.0652L11.9079 23.1174C11.9079 23.1174 11.7965 23.9183 11.8043 24.4017L11.8052 24.4007ZM31.2229 27.0896C29.6651 28.6171 27.4874 29.4809 25.1255 29.4886C22.7637 29.4924 20.586 28.6323 19.0282 27.1087C18.297 26.4002 17.7291 25.5453 17.363 24.6019C17.0254 23.7081 16.896 22.7511 16.9842 21.8015C17.0656 20.8735 17.3502 19.9738 17.8183 19.1642C18.2897 18.3466 18.9177 17.6268 19.6676 17.0446C21.1827 15.8565 23.1086 15.2129 25.1255 15.2129C27.1425 15.2091 29.0684 15.846 30.5796 17.0303C31.3303 17.6097 31.9597 18.3269 32.4328 19.1423C32.8959 19.9499 33.1826 20.8395 33.2669 21.7787C33.3556 22.7276 33.2247 23.6841 32.8843 24.5762C32.5227 25.5232 31.9557 26.3803 31.2229 27.0896Z" fill="#E87500"/>
<path d="M102.588 21.8759C102.706 20.624 103.71 19.8355 105.24 19.8355C106.771 19.8355 107.774 20.624 107.893 21.8759H102.588ZM107.736 24.9557C107.341 25.8834 106.419 26.4307 105.16 26.4307C103.59 26.4307 102.531 25.4849 102.488 23.9917H111.529V23.5512C111.529 19.8154 109.248 17.7111 105.16 17.7111C101.195 17.7111 98.7951 19.8336 98.7951 23.1603C98.7951 26.5042 101.232 28.6238 105.16 28.6238C107.522 28.6238 109.348 27.8457 110.476 26.4784L107.736 24.9557ZM62.4767 21.8797C62.5958 20.6316 63.5985 19.8421 65.133 19.8421C66.6636 19.8421 67.6634 20.6316 67.7815 21.8797H62.4767ZM67.6246 24.9633C67.2342 25.8911 66.3081 26.4384 65.0487 26.4384C63.4793 26.4384 62.4195 25.4925 62.3769 23.9984H71.4153V23.5626C71.4153 19.8202 69.1368 17.7187 65.0487 17.7187C61.0797 17.7187 58.6869 19.8421 58.6869 23.1679C58.6869 26.5127 61.1214 28.6285 65.0487 28.6285C67.4066 28.6285 69.2366 27.8533 70.3691 26.487L67.6246 24.9633ZM54.6182 15.4542H57.8761V28.29H54.6182V15.4542ZM72.2262 18.8667H75.5025V19.6295C76.666 18.4376 78.06 17.835 79.6294 17.835C81.439 17.835 82.8098 18.4376 83.5179 19.4626C84.1108 20.3112 84.1495 21.3315 84.1495 22.6759V28.2891H80.8655V23.3586C80.8655 21.3096 80.4363 20.3675 78.5724 20.3675C76.6853 20.3675 75.5025 21.4478 75.5025 23.2652V28.29H72.2262V18.8667ZM94.7099 23.3205C94.7099 25.0787 93.4893 26.2296 91.6021 26.2296C89.715 26.2296 88.4934 25.1159 88.4934 23.3395C88.4934 21.5374 89.6956 20.4266 91.6021 20.4266C93.4893 20.4266 94.7099 21.5594 94.7099 23.3205ZM94.7099 19.291C93.8797 18.4376 92.6813 17.9685 91.0122 17.9685C87.4181 17.9685 84.9614 20.1024 84.9614 23.3023C84.9614 26.4384 87.3987 28.6323 90.955 28.6323C92.5854 28.6323 93.7799 28.2338 94.7099 27.3432V28.2891H97.9901V14.6389L94.7099 15.4542V19.291ZM47.1656 20.4266C49.0721 20.4266 50.2704 21.5403 50.2704 23.3433C50.2704 25.1197 49.0527 26.2296 47.1656 26.2296C45.2784 26.2296 44.0617 25.0787 44.0617 23.3214C44.0617 21.5594 45.2784 20.4266 47.1656 20.4266ZM44.0617 15.4542L40.7815 14.6428V28.2929H44.0617V27.347C44.9839 28.2376 46.1823 28.6323 47.8166 28.6323C51.3719 28.6323 53.8073 26.4384 53.8073 23.3023C53.8073 20.1024 51.3496 17.9685 47.7555 17.9685C46.0864 17.9685 44.888 18.4376 44.0617 19.2939V15.4542ZM112.336 28.2929V18.8667H115.617V19.4512C116.601 18.3118 117.638 17.7445 118.821 17.7445C119.058 17.7445 119.354 17.7826 119.743 17.8198V20.5048C119.429 20.4676 119.078 20.4676 118.703 20.4676C116.796 20.4676 115.617 21.6785 115.617 23.7343V28.2929H112.336Z" fill="#235785"/>
<path d="M122.545 16.9978H122.667C122.748 16.9978 122.808 16.9797 122.851 16.9387C122.872 16.9167 122.888 16.8909 122.898 16.8628C122.909 16.8346 122.914 16.8047 122.912 16.7747C122.912 16.6965 122.889 16.6412 122.851 16.6107C122.808 16.5812 122.744 16.5659 122.652 16.5659H122.544L122.545 16.9978ZM123.234 16.7757C123.238 16.8569 123.215 16.9372 123.168 17.0043C123.121 17.0715 123.052 17.1218 122.973 17.1475L123.387 17.7892H123.019L122.698 17.2372H122.545V17.7892H122.223V16.3285H122.667C122.858 16.3285 123.004 16.3695 123.096 16.4477C123.188 16.5192 123.234 16.6269 123.234 16.7757ZM121.442 17.0579C121.443 16.8435 121.501 16.6329 121.611 16.4472C121.721 16.2614 121.879 16.1071 122.07 15.9995C122.266 15.8927 122.488 15.8366 122.713 15.8365C122.947 15.8365 123.161 15.8918 123.356 16.0005C123.547 16.112 123.701 16.2608 123.816 16.4467C123.938 16.6374 123.999 16.8415 123.999 17.0579C123.999 17.2772 123.942 17.4822 123.83 17.6681C123.711 17.8522 123.549 18.0058 123.356 18.1163C123.161 18.2263 122.939 18.2827 122.713 18.2793C122.476 18.2793 122.262 18.2278 122.07 18.1153C121.878 18.0101 121.719 17.8558 121.611 17.6691C121.498 17.4844 121.44 17.2729 121.442 17.0579ZM121.657 17.0579C121.657 17.2486 121.702 17.4231 121.794 17.5795C121.886 17.7282 122.013 17.855 122.176 17.9513C122.35 18.041 122.529 18.0858 122.713 18.0858C122.901 18.087 123.085 18.0411 123.249 17.9523C123.413 17.8636 123.55 17.7351 123.647 17.5795C123.739 17.4231 123.784 17.2476 123.784 17.0579C123.784 16.8786 123.732 16.7118 123.632 16.5516C123.541 16.3965 123.409 16.268 123.249 16.1797C123.091 16.0837 122.909 16.0314 122.723 16.0286C122.537 16.0257 122.353 16.0724 122.192 16.1635C122.029 16.2525 121.892 16.3809 121.794 16.5363C121.702 16.6965 121.657 16.872 121.657 17.0579Z" fill="#216191"/>
</g>
<defs>
<clipPath id="clip0_1262_1566">
<rect width="124" height="41" fill="white"/>
</clipPath>
</defs>
</svg>
