<svg width="64" height="64" viewBox="0 0 64 64" fill="none" xmlns="http://www.w3.org/2000/svg">
<g clip-path="url(#clip0_1262_1602)">
<path d="M14.525 21.875L15.225 24.725L13.275 26.925L16.2 27.125L17.6875 29.6625L18.8125 26.9375L21.6625 26.3L19.425 24.4125L19.6875 21.4875L17.2 23.0375L14.525 21.875ZM46.45 10.4088L47.4 12.3113L46.4125 14.1875L48.5 13.8375L49.95 15.4L50.3125 13.3L52.2125 12.3788L50.325 11.4113L50.05 9.30127L48.55 10.795L46.45 10.4088ZM39.025 16.425L38.1625 18.775L35.8 19.4125L37.7625 20.925L37.7125 21.9125C34.8903 22.9886 32.0066 24.2366 29.1625 25.6125C29.15 25.6167 29.1375 25.6208 29.125 25.625C25.4562 27.4065 21.9221 29.3681 18.7279 31.3959C15.5336 33.4237 12.7429 35.4773 10.5175 37.4375L8.9825 36.5375L8.75 33.5625L6.51 35.55L3.5975 34.8625L4.81625 37.6125L3.24 40.1625L6.2275 39.85L7.10875 40.8875C5.15601 43.2681 4.46803 45.2362 5.11625 46.5875C6.05192 48.5514 9.7387 49.0892 15.4 48.0875L14.875 49.5L12.1887 50.225L14.4 51.9125L14.25 54.7L16.55 53.1375L19.1625 54.1375L18.3625 51.4625L20.125 49.2875L17.3375 49.2L16.4625 47.8625C19.189 47.3149 22.2507 46.451 25.5 45.3125L26.3625 47.6375L28.1875 44.775L31.5875 44.675L30.55 43.4C32.531 42.5732 34.5214 41.6723 36.4875 40.7125C42.0918 37.9953 47.3392 34.8791 51.5375 31.775L52.6 34.025L50.8625 36.9625L54.25 36.525L56.4875 39.0875L57.15 35.75L60.275 34.4L57.275 32.75L56.975 29.3625L54.475 31.6875L52.3 31.2C55.4198 28.8192 57.7869 26.543 59.2127 24.553C60.6385 22.5629 61.0836 20.9139 60.5125 19.7375C59.8165 18.3057 57.6408 17.6277 54.2391 17.7826C50.8374 17.9375 46.3499 18.919 41.3 20.6125L41.275 20.5L42.825 18.575L40.35 18.5125L39.025 16.425ZM29.6 26.7625C29.6291 26.7417 29.6583 26.7209 29.6875 26.7C32.3459 25.4182 35.0428 24.286 37.6375 23.3625V23.3875L37.7125 23.3375C38.7034 22.9764 39.6768 22.6464 40.625 22.35L41.9875 22.875L41.725 22.0375C44.9228 21.1359 47.6875 20.6808 49.7695 20.7136C51.8515 20.7463 53.1852 21.2658 53.65 22.225C54.1192 23.1874 53.6971 24.5631 52.422 26.2268C51.147 27.8905 49.0596 29.7892 46.35 31.75L46.1 30.3875L47.35 29.1L45.55 28.9L44.7375 27.2875L43.975 28.925L42.175 29.225L43.5125 30.45L43.25 32.225L44.8125 31.375L46.05 31.975C42.9675 34.1706 39.2394 36.3486 35.2875 38.2625C33.4779 39.1365 31.6463 39.943 29.8375 40.6625L30.375 38.7875L27.2125 40L24.4 38.1125L24.6 41.4875L22.475 43.15C19.4676 43.9467 16.8864 44.325 14.9469 44.2532C13.0074 44.1814 11.766 43.6618 11.3262 42.7375C10.5971 41.208 12.1094 38.6699 15.5329 35.677C18.9565 32.6841 24.0133 29.4795 29.6 26.7625Z" fill="#FFD600"/>
</g>
<defs>
<clipPath id="clip0_1262_1602">
<rect width="64" height="64" fill="white"/>
</clipPath>
</defs>
</svg>
