<svg width="64" height="64" viewBox="0 0 64 64" fill="none" xmlns="http://www.w3.org/2000/svg">
<g clip-path="url(#clip0_1262_1595)">
<path d="M24.4 24.4C27.6 21.2 27.6 16 24.4 12.8L12.8 24.4C16 27.6 21.2 27.6 24.4 24.4Z" fill="#D0D0D0"/>
<path d="M27 27C22.7 31.3 22.7 31.3 21 29.6C19.3 27.9 19.3 27.9 23.6 23.6C27.9 19.3 27.9 19.3 29.6 21C31.3 22.7 31.3 22.7 27 27Z" fill="#94989B"/>
<path d="M37.2 37.2C32.9 41.5 32.9 41.5 31.2 39.8L24.3 32.9C22.6 31.2 22.6 31.2 26.9 26.9C31.2 22.6 31.2 22.6 32.9 24.3L39.8 31.2C41.5 32.9 41.5 32.9 37.2 37.2Z" fill="#7F8285"/>
<path d="M39.6 39.6C36.4 42.8 36.4 42.8 35.1 41.5C33.8 40.2 33.8 40.2 37 37C40.2 33.8 40.2 33.8 41.5 35.1C42.8 36.3 42.8 36.3 39.6 39.6Z" fill="#646669"/>
<path d="M22.2 15L15.1 13.7C15.1 13.4 15 13.2 14.8 13C14.4 12.6 13.6 12.6 13.2 13C12.8 13.4 12.8 14.2 13.2 14.6C13.4 14.8 13.6 14.9 13.8 14.9L15.2 22.1L16 21.3H15.8L14.6 14.8C14.7 14.7 14.8 14.7 14.9 14.6C15 14.5 15 14.5 15 14.4L21.5 15.6V15.8L22.2 15Z" fill="#94989B"/>
<path d="M25.756 37.336L27.241 35.852L28.16 36.772L26.675 38.256L25.756 37.336ZM35.866 27.24L37.351 25.756L38.27 26.675L36.785 28.16L35.866 27.24Z" fill="#3E4347"/>
<path d="M31.1 42.6C31.3 42.8 31.3 43.1 31.1 43.3L12.5 61.9C12.3 62.1 12 62.1 11.8 61.9L2.09999 52.2C1.99999 52 1.99999 51.7 2.09999 51.5L20.7 32.9C20.9 32.7 21.2 32.7 21.4 32.9L31.1 42.6Z" fill="#428BC1"/>
<path d="M31.1 42.6C31.3 42.8 31.3 43.1 31.1 43.3L12.5 61.9C12.3 62.1 12 62.1 11.8 61.9L2.09999 52.2C1.99999 52 1.99999 51.7 2.09999 51.5L20.7 32.9C20.9 32.7 21.2 32.7 21.4 32.9L31.1 42.6Z" fill="#428BC1"/>
<path d="M61.9 11.9C62.1 12.1 62.1 12.4 61.9 12.6L43.3 31.1C43.1 31.3 42.8 31.3 42.6 31.1L32.9 21.4C32.7 21.2 32.7 20.9 32.9 20.7L51.5 2.10002C51.7 2.00002 52 2.00002 52.1 2.10002L61.9 11.9Z" fill="#428BC1"/>
<path d="M3.29999 51.8L3.99999 52.5H20.4L25.5 47.4H7.69999L3.29999 51.8ZM29.2 42.3H12.8L10.3 44.9H28L29.9 43L29.2 42.3ZM34.1 21L34.8 21.7H51.2L56.3 16.6H38.5L34.1 21ZM60 11.5H43.6L41.1 14.1H58.8L60.7 12.2L60 11.5Z" fill="#42ADE2"/>
</g>
<defs>
<clipPath id="clip0_1262_1595">
<rect width="64" height="64" fill="white"/>
</clipPath>
</defs>
</svg>
