<svg width="64" height="64" viewBox="0 0 64 64" fill="none" xmlns="http://www.w3.org/2000/svg">
<g clip-path="url(#clip0_1262_1624)">
<path d="M54.555 19.82C54.635 20.275 55.06 21.58 54.82 22.225L53.33 26.14C52.94 27.145 53.54 28.31 54.66 28.745C55.785 29.18 57.005 28.715 57.395 27.705L58.94 23.77C59.185 23.15 60.18 22.42 60.585 22.105C60.91 21.855 60.835 21.345 60.445 21.205C58.935 20.655 57.085 19.905 55.235 19.245C54.87 19.115 54.485 19.43 54.555 19.82Z" fill="#616161"/>
<path d="M57.395 27.705L58.815 24.1C58.815 24.1 57.275 25.11 54.265 23.685L53.335 26.14C52.945 27.145 53.545 28.31 54.665 28.745C55.785 29.175 57.01 28.71 57.395 27.705Z" fill="#212121"/>
<path d="M59.545 26.89C59.5929 26.842 59.6279 26.7825 59.6464 26.7172C59.665 26.6519 59.6666 26.583 59.651 26.5169C59.6355 26.4508 59.6034 26.3898 59.5577 26.3396C59.5121 26.2894 59.4543 26.2517 59.39 26.23L52.185 23.775C51.45 23.485 50.89 22.89 50.595 22.16C49.73 20.045 47.71 18.675 46.93 18.375L45.185 19.37L41.88 27.14L43 29.06C43.775 29.36 46.135 29.74 48.115 28.775C48.84 28.42 49.67 28.34 50.425 28.625L55.375 30.195C55.78 30.325 56.225 30.215 56.525 29.915L59.545 26.89Z" fill="#616161"/>
<path d="M46.985 18.395L16.44 6.04999C15.99 7.21499 12.03 16.725 11.95 17.7L42.89 29.02C44.07 29.475 45.94 27.46 47.07 24.525C48.2 21.595 48.165 18.85 46.985 18.395Z" fill="#CFD8DC"/>
<path d="M13.545 18.29L42.89 29.025C43.475 29.25 44.245 28.845 45 28.04L37.62 25.04C37.62 25.04 40.125 22.3 38.165 18.89L33.94 23.59L14.565 15.77C14.44 16.09 14.045 17.05 13.545 18.29Z" fill="#BDBDBD"/>
<path d="M10.3237 10.3845C11.8404 6.45001 11.7143 2.73791 10.0421 2.0933C8.3699 1.44868 5.78478 4.11564 4.26809 8.05012C2.7514 11.9846 2.87748 15.6967 4.5497 16.3413C6.22191 16.9859 8.80704 14.319 10.3237 10.3845Z" fill="#CFD8DC"/>
<path d="M21.41 6.82502C19.81 6.21002 17.335 8.76002 15.88 12.53C14.43 16.3 14.55 19.85 16.15 20.47C17.75 21.085 20.225 18.535 21.68 14.765C23.13 10.995 23.01 7.44002 21.41 6.82502Z" fill="#616161"/>
<path d="M21.41 6.82497L10.04 2.09497L4.55 16.34L16.15 20.465L21.41 6.82497Z" fill="#616161"/>
<path d="M9.10869 9.92885C10.3512 6.70551 10.3664 3.71001 9.14249 3.23822C7.9186 2.76642 5.91915 4.99699 4.6766 8.22033C3.43404 11.4437 3.41891 14.4392 4.6428 14.911C5.86669 15.3828 7.86614 13.1522 9.10869 9.92885Z" fill="#212121"/>
<path d="M6.215 8.81502C7.105 6.50502 8.67 4.84502 10.28 4.62002C10.515 4.58502 10.16 7.94002 9.06 10.625C8.11 12.95 6.42 14.675 6.28 14.475C5.365 13.195 5.365 11.02 6.215 8.81502Z" fill="url(#paint0_linear_1262_1624)"/>
<path d="M8.74 15.4L16.7 18.385C18.13 18.92 19.205 19.01 19.965 18.035C20.85 16.9 21.065 16.34 21.355 15.59C21.805 14.43 20.61 13.59 20.15 13.41L11.53 9.85C11.2844 9.74794 11.0098 9.7394 10.7583 9.826C10.5068 9.9126 10.2957 10.0883 10.165 10.32L8.175 13.835C7.845 14.425 8.11 15.165 8.74 15.4Z" fill="#212121"/>
<path d="M10.04 2.09501C8.365 1.45001 5.785 4.12001 4.265 8.05001C2.75 11.985 2.875 15.695 4.55 16.34C6.22 16.985 8.805 14.32 10.32 10.385C11.835 6.45001 11.71 2.74001 10.04 2.09501ZM4.85 14.38C3.835 13.99 3.93 11.29 5.06 8.35501C6.19 5.42001 7.93 3.35501 8.95 3.75001C9.97 4.14501 9.87 6.84001 8.74 9.77501C7.605 12.71 5.865 14.775 4.85 14.38Z" fill="#9E9E9E"/>
<path d="M28.01 27.58C28.01 29.455 29.01 30.97 30.24 30.97C31.47 30.97 32.47 29.45 32.47 27.58C32.47 26.39 32.065 25.345 31.46 24.74L29 24.765C28.4 25.37 28.01 26.405 28.01 27.58Z" fill="#82AEC0"/>
<path d="M32.545 29.605C31.945 29.605 30.77 30.67 30.77 31.585L31.09 45.49L31.525 47.525L31.645 60.25C31.645 61.095 32.34 61.805 32.37 61.835L32.535 62.005L32.71 61.845C32.74 61.815 33.505 61.11 33.505 60.255V47.39L33.99 45.315L34.31 31.14C34.31 30.235 33.165 29.605 32.545 29.605Z" fill="#82AEC0"/>
<path d="M32.05 27.37C31.53 27.67 31.045 29.18 31.5 29.975L39.225 42.71L40.62 44.255L47.085 55.215C47.51 55.95 48.46 56.215 48.505 56.225L48.735 56.285L48.805 56.06C48.82 56.02 49.125 55.025 48.695 54.285L42.265 43.145L41.65 41.105L34.34 27.815C33.89 27.035 32.585 27.06 32.05 27.37Z" fill="#82AEC0"/>
<path d="M32.94 27.37C33.46 27.67 33.945 29.18 33.49 29.975L25.76 42.71L24.365 44.255L17.9 55.21C17.475 55.945 16.525 56.21 16.48 56.22L16.25 56.28L16.18 56.055C16.165 56.015 15.86 55.02 16.29 54.28L22.72 43.145L23.335 41.105L30.645 27.81C31.095 27.035 32.4 27.06 32.94 27.37Z" fill="#82AEC0"/>
<path d="M29.795 30.97C29.795 30.97 34.69 31.595 35.54 31.275C36.625 30.86 37.475 29.39 37.4 27.73C37.325 26.07 35.86 24.74 35.76 24.86C36.715 24.445 37.63 23.62 38.28 21.35C38.535 20.455 38.6 19.66 38.375 19.085C38.055 18.255 37.4 17.86 36.825 18.04C36.24 18.22 35.985 19.03 35.82 19.54C35.485 20.575 35.095 21.615 34.45 22.49C33.805 23.365 32.31 24.29 30.47 24.46L29.795 30.97Z" fill="#82AEC0"/>
<path d="M29.21 30.545L30.835 30.865V34.36L30.01 35.71C30.01 35.71 30.13 33.795 30.02 32.82C29.845 31.325 29.21 30.545 29.21 30.545ZM34.59 35.065C34.59 35.065 34.925 33.92 36.27 33.92C37.615 33.92 38.325 35.065 38.325 35.065L36.075 30.975C36.075 30.975 35.375 31.65 34.295 31.715L34.235 34.48L34.59 35.065Z" fill="#2F7889"/>
<path d="M33.935 31.18C35.5145 31.18 36.795 29.7764 36.795 28.045C36.795 26.3136 35.5145 24.91 33.935 24.91C32.3555 24.91 31.075 26.3136 31.075 28.045C31.075 29.7764 32.3555 31.18 33.935 31.18Z" fill="#B9E4EA"/>
<path d="M34.16 29.44C34.8614 29.44 35.43 28.8155 35.43 28.045C35.43 27.2746 34.8614 26.65 34.16 26.65C33.4586 26.65 32.89 27.2746 32.89 28.045C32.89 28.8155 33.4586 29.44 34.16 29.44Z" fill="#2F7889"/>
<path d="M28.135 23.645L30.475 24.455C30.475 24.455 33.305 24.065 34.455 22.485C35.605 20.9 36.02 18.7 36.21 18.445C36.4 18.19 36.85 17.935 37.23 18.03L37.615 18.125C37.615 18.125 36.85 18.095 36.66 18.89C36.47 19.69 35.705 22.05 34.745 23.04C33.79 24.03 32.19 24.57 31.68 24.825C31.17 25.08 30.595 27.125 29.86 27.475C29.125 27.825 28.105 27.38 28.135 26.58C28.165 25.78 28.805 24.95 28.805 24.95L28.135 23.645Z" fill="#2F7889"/>
<path d="M25.425 12.165L34.475 15.645" stroke="white" stroke-width="3" stroke-miterlimit="10" stroke-linecap="round" stroke-linejoin="round"/>
</g>
<defs>
<linearGradient id="paint0_linear_1262_1624" x1="11.1475" y1="12.3944" x2="7.09042" y2="8.3617" gradientUnits="userSpaceOnUse">
<stop stop-color="#1565C0"/>
<stop offset="0.131" stop-color="#2574C5"/>
<stop offset="0.723" stop-color="#69B5D8"/>
<stop offset="1" stop-color="#84CFE0"/>
</linearGradient>
<clipPath id="clip0_1262_1624">
<rect width="64" height="64" fill="white"/>
</clipPath>
</defs>
</svg>
