<svg width="124" height="36" viewBox="0 0 124 36" fill="none" xmlns="http://www.w3.org/2000/svg">
<g clip-path="url(#clip0_1262_1555)">
<path d="M23.6966 12.9247C26.0296 14.5764 28.8876 15.5484 31.9743 15.5484V9.66528C31.3901 9.66533 30.8075 9.605 30.2359 9.48528V14.1161C27.1495 14.1161 24.2919 13.1441 21.9582 11.4924V23.4984C21.9582 29.5044 17.0427 34.3728 10.9793 34.3728C8.71706 34.3728 6.61415 33.6953 4.86749 32.5334C6.86094 34.5526 9.64149 35.8051 12.7173 35.8051C18.7812 35.8051 23.6968 30.9367 23.6968 24.9307V12.9245L23.6966 12.9247ZM25.8412 6.98952C24.6146 5.66552 23.8611 3.97874 23.6966 2.1888V1.43208H22.0492C22.4639 3.77496 23.8782 5.77632 25.8412 6.98952ZM8.70253 27.9245C8.03644 27.0594 7.6764 26.0011 7.67808 24.913C7.67808 22.1662 9.9263 19.939 12.7003 19.939C13.2171 19.939 13.7311 20.0172 14.2237 20.172V14.1576C13.648 14.0794 13.0669 14.0462 12.486 14.0582V18.7399C11.9931 18.5851 11.479 18.5065 10.9619 18.5069C8.18788 18.5069 5.93966 20.7338 5.93966 23.4811C5.93966 25.4234 7.06341 27.1051 8.70253 27.9245Z" fill="#FF004F"/>
<path d="M21.9582 11.4924C24.2919 13.1441 27.1495 14.1158 30.2362 14.1158V9.48504C28.5448 9.12675 27.0084 8.25436 25.8412 6.98952C23.8782 5.77632 22.4639 3.77472 22.0492 1.43208H17.7223V24.93C17.7126 27.6694 15.4678 29.8874 12.7001 29.8874C11.0689 29.8874 9.6197 29.1173 8.70205 27.9245C7.06341 27.1051 5.93942 25.4234 5.93942 23.4811C5.93942 20.7341 8.18764 18.5069 10.9617 18.5069C11.493 18.5069 12.0055 18.589 12.4857 18.7399V14.0585C6.5289 14.1804 1.73819 19.0013 1.73819 24.9302C1.73819 27.8899 2.93121 30.5729 4.86749 32.5334C6.67463 33.7359 8.80288 34.3762 10.9796 34.3726C17.043 34.3726 21.9584 29.5039 21.9584 23.4982L21.9582 11.4924Z" fill="black"/>
<path d="M30.2359 9.4848V8.23272C28.6823 8.23507 27.1593 7.80417 25.8412 6.98928C27.008 8.25454 28.5444 9.12684 30.2359 9.4848ZM22.0492 1.43232C22.0097 1.20851 21.9793 0.983209 21.9582 0.75696V0H15.9836V23.4982C15.974 26.237 13.7299 28.4551 10.9616 28.4551C10.1769 28.4564 9.40285 28.2747 8.70204 27.9247C9.61993 29.1175 11.0689 29.8874 12.7001 29.8874C15.4675 29.8874 17.7126 27.6696 17.7223 24.9302V1.43208L22.0492 1.43232ZM12.486 14.0587V12.7258C11.9867 12.6581 11.4834 12.6243 10.9796 12.6245C4.91568 12.624 0 17.4926 0 23.4982C0 27.263 1.93193 30.5813 4.86773 32.5332C2.93144 30.5729 1.73842 27.8897 1.73842 24.93C1.73842 19.0013 6.52889 14.1806 12.486 14.0587Z" fill="#00F2EA"/>
<path d="M99.4638 29.4492C103.802 29.4492 107.32 25.992 107.32 21.7274C107.32 17.4631 103.802 14.0052 99.4638 14.0052H98.2797C102.618 14.0052 106.136 17.4631 106.136 21.7274C106.136 25.992 102.618 29.4492 98.2797 29.4492H99.4635H99.4638Z" fill="#FF004F"/>
<path d="M98.1729 14.0052H96.9893C92.6508 14.0052 89.1328 17.4631 89.1328 21.7274C89.1328 25.992 92.6508 29.4492 96.9893 29.4492H98.1729C93.8336 29.4492 90.3163 25.992 90.3163 21.7274C90.3163 17.4631 93.8336 14.0052 98.1729 14.0052Z" fill="#00F2EA"/>
<path d="M64.5975 10.5151V19.2936L69.1164 14.8512H74.6044L68.9009 20.352L75.2503 29.449H70.4083L65.9966 23.2075L64.5975 24.4778V29.3434H60.0775V10.5151H64.5975ZM113.346 10.5151V19.2936L117.866 14.8512H123.354L117.65 20.352L124 29.4494H119.157L114.745 23.208L113.346 24.4783V29.3438H108.825V10.5151H113.346ZM98.2795 14.0052C102.618 14.0052 106.136 17.4631 106.136 21.7274C106.136 25.992 102.618 29.4492 98.2795 29.4492H98.1724C93.8336 29.4492 90.3163 25.992 90.3163 21.7274C90.3163 17.4631 93.8336 14.0052 98.1724 14.0052H98.2795ZM52.7606 10.5151L51.469 14.5349H47.7029V29.3436H43.0745V14.4293H38.448V10.5149H52.7603L52.7606 10.5151ZM90.6399 10.5151L89.3488 14.5349H85.5828V29.3436H80.9543V14.4293H76.3278V10.5149L90.6399 10.5151ZM58.14 16.5446V29.3438H53.6218V16.5446H58.14ZM98.2269 17.9729C96.117 17.9729 94.4057 19.6531 94.4057 21.7274C94.4057 23.8018 96.117 25.4827 98.2269 25.4832C100.336 25.4832 102.047 23.8018 102.047 21.7274C102.047 19.6531 100.336 17.9729 98.2269 17.9729ZM55.8799 10.5151C57.1289 10.5151 58.14 11.5099 58.14 12.7363C58.14 13.9627 57.1296 14.9575 55.8799 14.9575C54.6319 14.957 53.6218 13.963 53.6218 12.7363C53.6218 11.5099 54.6319 10.5151 55.8799 10.5151Z" fill="black"/>
</g>
<defs>
<clipPath id="clip0_1262_1555">
<rect width="124" height="36" fill="white"/>
</clipPath>
</defs>
</svg>
