<svg width="64" height="64" viewBox="0 0 64 64" fill="none" xmlns="http://www.w3.org/2000/svg">
<g clip-path="url(#clip0_1262_1617)">
<path d="M32 2.875C29.9905 2.875 27.9531 3.34125 25.9778 4.155C25.712 4.97063 25.4931 6 25.3681 7.12425C25.2044 8.598 25.1519 10.2125 25.1344 11.7266C29.3674 11.2636 34.6326 11.2636 38.8656 11.7266C38.8481 10.2125 38.7956 8.59788 38.6319 7.12413C38.5069 6.00012 38.2881 4.97063 38.0223 4.155C36.0469 3.34125 34.0095 2.875 32 2.875ZM44.5705 5.2915C45.7349 6.17325 46.8339 7.15125 47.8558 8.19575C48.047 7.3645 48.442 6.60875 48.9845 5.98387L44.5705 5.2915ZM23.3167 5.47775C18.9824 8.00525 15.1859 12.067 12.9978 16.2695C8.86275 24.2115 8.0365 35.889 12.9315 43.1195C16.5983 48.5347 25.0345 50.625 32 50.625C38.9656 50.625 47.4019 48.535 51.0684 43.1194C55.9636 35.889 55.1371 24.2115 51.0021 16.2694C48.8141 12.0669 45.0176 8.00537 40.6834 5.47775C40.7556 5.934 40.8155 6.40125 40.8681 6.87575C41.0584 8.5875 41.1071 10.4004 41.1199 12.0341C43.458 12.4284 45.25 13 46 13.75C50 17.75 55.4421 30.5869 48 41.75C43.2933 48.81 20.7067 48.81 16 41.75C8.55788 30.5869 14 17.75 18 13.75C18.75 13 20.5419 12.4284 22.88 12.0341C22.8929 10.4004 22.9416 8.5875 23.1319 6.87575C23.1844 6.40125 23.2445 5.934 23.3167 5.47775ZM8 6C6.89538 6 6 6.89538 6 8C6.00004 8.32604 6.07978 8.64712 6.23228 8.93529C6.38479 9.22346 6.60543 9.46998 6.875 9.65337V18.1875L9.125 16.5V9.65125C9.39427 9.46806 9.61473 9.22188 9.76722 8.93411C9.91971 8.64633 9.99962 8.32568 10 8C10 6.89538 9.10462 6 8 6ZM52.8512 6.46C51.25 6.46 49.9762 7.73375 49.9762 9.335C49.9762 10.9362 51.25 12.21 52.8512 12.21C54.4525 12.21 55.7262 10.9362 55.7262 9.335C55.7262 7.73375 54.4525 6.46 52.8512 6.46ZM56.0103 13.3606C55.1377 14.0478 54.0405 14.46 52.8515 14.46C52.7584 14.46 52.6665 14.4566 52.5747 14.4516C52.676 14.6326 52.7752 14.8147 52.8722 14.9979L56.6037 17.7966L56.0103 13.3606ZM26.1575 13.6731C24.0004 13.6844 21.5005 14.1427 19.5034 15.6881C16.1741 18.2641 14.1241 30.0335 15.3171 34.0335C17.3901 26.3126 19.3162 18.531 28.8071 13.8743C27.9307 13.7368 27.0447 13.6696 26.1575 13.6731ZM9.27563 19.1994L5.01875 22.3923L3.20875 31.4433L7.98125 37.17C6.61287 31.3546 7.25925 24.8295 9.27563 19.1994ZM54.7244 19.1994C56.7406 24.8296 57.3871 31.3546 56.0187 37.1699L60.7912 31.443L58.9813 22.392L54.7244 19.1994ZM13.3306 46.9912C12.8827 47.1375 12.4241 47.417 12.0454 47.7956C11.5284 48.3126 11.2104 48.9744 11.1499 49.5586C11.1761 49.6041 11.2253 49.7033 11.3661 49.8289C11.6728 50.1024 12.2028 50.4751 12.882 50.8736C14.2404 51.6711 16.2008 52.5933 18.4076 53.4515C21.0548 54.4811 24.0764 55.4145 26.8749 55.999V52.5477C21.9411 51.9077 16.8879 50.2571 13.3306 46.9912ZM50.6694 46.9912C47.1121 50.2569 42.0588 51.9075 37.125 52.5475V55.9987C39.9234 55.4142 42.945 54.4809 45.5923 53.4512C47.7991 52.5931 49.7595 51.6709 51.1179 50.8735C51.7971 50.4748 52.3271 50.1022 52.6338 49.8285C52.7746 49.703 52.8237 49.6039 52.85 49.5585C52.7897 48.9741 52.4716 48.3123 51.9546 47.7954C51.5759 47.4166 51.1171 47.1374 50.6694 46.991V46.9912ZM9.66525 51.3252L2.25 56.2687V61.75H6.875V59.5H9.125V61.75H54.875V59.5H57.125V61.75H61.75V56.2687L54.3348 51.3252C54.2676 51.3862 54.1997 51.4465 54.1319 51.5074C53.6416 51.9445 53.0154 52.3686 52.2571 52.8139C50.7405 53.7039 48.7009 54.6567 46.4077 55.5485C41.8215 57.332 36.2812 58.875 32 58.875C27.7188 58.875 22.1785 57.3321 17.5923 55.5488C15.2991 54.6569 13.2595 53.7041 11.7429 52.814C10.9846 52.369 10.3584 51.9446 9.86812 51.5074C9.80025 51.4465 9.73237 51.3862 9.66525 51.3252ZM29.125 52.773V56.397C30.1545 56.5422 31.1265 56.625 32 56.625C32.8735 56.625 33.8455 56.5422 34.875 56.397V52.773C32.9607 52.9088 31.0393 52.9088 29.125 52.773Z" fill="#F4D19B"/>
</g>
<defs>
<clipPath id="clip0_1262_1617">
<rect width="64" height="64" fill="white"/>
</clipPath>
</defs>
</svg>
