<svg width="124" height="40" viewBox="0 0 124 40" fill="none" xmlns="http://www.w3.org/2000/svg">
<path d="M86.8672 3.53899C86.8672 3.53899 84.5422 4.46899 81.84 7.44499C79.1327 10.4262 77.562 13.7742 78.7245 14.6628C79.174 15.0038 80.2073 15.071 82.0828 13.3712C83.8087 11.8708 85.1634 9.99093 86.0405 7.87899C87.2495 4.93399 86.8672 3.57515 86.8672 3.53899ZM101.659 8.90199C98.6575 7.35716 96.4617 5.47132 94.178 4.30365C91.9977 3.18765 90.5872 2.71749 88.8253 2.95516C88.5804 2.99888 88.3387 3.0593 88.102 3.13599C88.102 3.13599 89.0113 6.23599 85.3998 11.4388C81.7418 16.7192 78.4248 16.683 77.4793 15.2312C76.4925 13.7018 77.7687 10.5812 79.8973 7.80666C82.1293 4.90299 86.0457 2.49532 86.0457 2.49532C86.0457 2.49532 84.8005 1.73065 81.7315 3.47699C78.7348 5.16132 73.5837 9.19649 68.8045 15.9958C64.0202 22.7952 63.0695 26.5358 62.3875 29.4808C61.7055 32.4258 62.3255 35.5775 65.5908 35.5775C68.8562 35.5775 72.6588 30.5968 73.7335 28.866C75.7278 25.642 77.0247 20.6975 74.3122 21.3743C72.974 21.7102 71.8942 23.1878 71.2122 24.6138C70.7815 25.5292 70.4523 26.4891 70.2305 27.4762C69.2811 27.8665 68.3894 28.3845 67.58 29.0158C66.681 29.6832 65.8409 30.4265 65.069 31.2375C65.069 31.2375 65.0793 28.8815 66.9548 25.0685C68.8355 21.2607 72.2765 19.5195 74.2295 19.3542C75.9862 19.2147 78.275 20.7078 76.3375 26.2103C74.4 31.7128 68.6753 38.4037 62.6665 38.4863C57.1227 38.5638 53.4905 31.4855 61.2095 19.1372C69.7552 5.48166 79.7785 1.29665 83.0283 0.831654C86.2833 0.366654 87.3425 1.79782 87.3425 1.79782C89.3005 0.995397 91.415 0.647392 93.527 0.779986C97.5053 1.04865 100.574 3.85932 104.635 5.83815C103.576 6.84565 102.569 7.90482 101.664 8.89682M119.51 4.29849C116.756 6.06549 112.948 7.66715 109.285 7.32615C108.36 8.28199 107.368 9.39282 106.376 10.6018C112.721 11.8573 118.286 7.92032 121.241 4.57232C122.319 3.37089 123.246 2.04174 124 0.614655C122.653 2.0163 121.146 3.24933 119.51 4.29849ZM111.057 22.1907C111.106 22.1072 111.146 22.0189 111.176 21.9272C111.158 21.7813 111.09 21.6462 110.983 21.5446C110.877 21.443 110.739 21.381 110.592 21.3692C109.988 21.3433 109.161 21.457 107.002 23.8492C105.207 25.8275 103.663 28.0191 102.403 30.3747C101.163 32.6377 100.662 34.322 101.37 34.756C101.602 34.877 101.872 34.9047 102.124 34.8335C102.605 34.7198 103.152 34.2652 103.984 33.3093C104.372 32.8547 104.801 32.214 105.317 31.5062C106.748 29.5635 110.344 23.4307 111.057 22.1907ZM88.5877 24.7947C88.9493 23.8543 89.4092 21.9995 88.4533 21.271C87.4252 20.496 84.8108 22.3095 84.7953 24.1695C84.7798 26.076 86.6398 26.9337 87.0842 27.0577C87.3425 27.1248 87.4252 27.1093 87.5492 26.9078C87.9438 26.2283 88.2908 25.5222 88.5877 24.7947ZM86.6088 28.2563C85.9605 27.9569 85.3556 27.5711 84.8108 27.1093C84.2657 26.651 83.8103 26.0957 83.4675 25.4715C83.4262 25.4095 83.39 25.456 83.3487 25.5128C83.3125 25.5645 83.1472 25.7143 81.7522 27.7552C80.3572 29.8012 78.2182 34.0378 80.1505 34.756C81.3957 35.221 83.4623 33.0458 84.5938 31.6043C85.3599 30.597 86.0539 29.5369 86.6708 28.432C86.7328 28.3132 86.6708 28.2822 86.6088 28.2563ZM108.608 33.1492C108.081 33.9913 107.482 35.6085 109.213 34.601C111.331 33.3817 114.349 28.7988 114.349 28.7988H115.718C114.472 30.7148 113.086 32.5351 111.569 34.2445C109.425 36.6212 106.805 38.786 104.956 38.569C102.806 38.321 103.478 35.4897 103.478 35.4897C103.478 35.4897 100.399 38.7705 98.2597 38.538C95.3818 38.2177 96.2602 34.6578 96.2602 34.6578C96.2602 34.6578 93.0051 38.6568 90.7835 38.5328C87.3063 38.3262 88.1795 34.0947 89.1508 31.1135C89.6675 29.5222 90.148 28.2718 90.148 28.2718C90.148 28.2718 89.8018 28.3597 89.063 28.4682C88.6703 28.525 87.9677 28.5663 87.9677 28.5663C87.9677 28.5663 86.521 31.1238 85.3585 32.6583C84.2012 34.1928 79.2722 39.4887 76.3685 38.4295C73.6922 37.4478 74.5808 33.3455 76.1412 30.0853C78.4145 25.332 84.8212 18.4965 88.5205 19.4007C92.349 20.3307 88.6083 27.316 88.6083 27.316C88.6083 27.316 88.6083 27.3418 88.6445 27.3625C88.722 27.3883 88.9235 27.4142 89.3833 27.3212C89.8613 27.2248 90.3298 27.0865 90.7835 26.9078C90.7835 26.9078 94.6378 18.8427 98.89 13.5623C103.142 8.29232 111.626 -0.801014 114.958 1.39999C115.764 1.94249 115.403 3.80249 114.307 6.06032C113.813 6.22069 113.312 6.35521 112.804 6.46332C113.537 5.13032 114.023 4.00916 114.168 3.22382C114.669 0.495822 108.304 6.24632 103.757 12.4205C101.017 16.1444 98.5822 20.084 96.4772 24.2005C97.2984 23.6998 98.0823 23.1403 98.8228 22.5265C100.852 20.8451 102.781 19.0457 104.599 17.1377C106.348 15.3462 107.989 13.4518 109.513 11.4647C109.997 11.4411 110.48 11.3911 110.959 11.3148C109.297 13.57 107.485 15.7104 105.534 17.7215C103.726 19.5557 101.763 21.5293 100.052 22.9657C98.529 24.2597 96.9221 25.4523 95.2423 26.5358C95.2423 26.5358 91.264 34.5597 93.4288 35.0712C94.6998 35.3812 97.2108 31.5062 97.2108 31.5062C97.2108 31.5062 100.492 26.51 102.465 24.2522C105.162 21.1883 107.477 19.4162 109.802 19.3852C111.15 19.3593 111.946 20.7957 111.946 20.7957L112.582 19.814H116.493C116.493 19.814 109.187 32.2037 108.603 33.1388M119.51 4.30882C116.756 6.07066 112.948 7.67232 109.285 7.33132C108.355 8.28716 107.368 9.39799 106.371 10.607C112.721 11.8625 118.28 7.93066 121.241 4.57749C122.319 3.37445 123.246 2.04355 124 0.614655C122.653 2.0163 121.146 3.24933 119.51 4.29849M64.5885 10.3848H60.8685L58.7657 13.7845H62.4857L64.5885 10.3848ZM46.9702 22.1493C48.5563 19.9793 52.9222 12.3792 52.9222 12.3792C52.9039 12.2341 52.8365 12.0996 52.7312 11.9981C52.626 11.8966 52.4891 11.8342 52.3435 11.8212C51.739 11.7902 50.7315 11.9968 48.7268 14.5027C46.7273 17.0085 45.1722 18.9977 44.0407 21.0747C42.8007 23.3377 42.253 24.9342 42.9712 25.3682C43.2015 25.4836 43.466 25.5112 43.7152 25.4457C44.1802 25.332 44.7898 24.8618 45.6217 23.906C46.0953 23.338 46.5468 22.7521 46.9753 22.1493M27.0165 11.8677C25.9883 11.0927 23.374 12.9062 23.3585 14.761C23.343 16.6675 25.7145 17.2513 26.0193 17.2617C26.1086 17.2697 26.1983 17.2518 26.2777 17.21C26.3323 17.1773 26.3756 17.1286 26.4017 17.0705C26.6816 16.524 26.9334 15.9635 27.156 15.3913C27.5177 14.4458 27.9723 12.5962 27.0165 11.8677ZM25.4665 18.4293C24.7578 18.2069 24.0805 17.8944 23.4515 17.4993C22.8404 17.1015 22.3436 16.5512 22.01 15.9028C21.9738 15.8408 21.9325 15.8873 21.8963 15.9442C21.8602 15.9958 21.6535 16.2593 20.2533 18.3105C18.8583 20.3668 16.7813 24.5622 18.724 25.2855C19.964 25.7505 22.0513 23.5598 23.188 22.1235C24.0374 20.996 24.8222 19.8212 25.5388 18.605C25.5853 18.481 25.5388 18.45 25.4665 18.4293ZM55.8465 19.69H57.2053C57.2053 19.69 50.3802 29.5687 46.5207 29.1088C44.3713 28.8557 45.0068 26.2 45.0068 26.2C45.0068 26.2 41.9843 29.7392 39.2047 29.021C36.6885 28.3752 38.316 24.185 38.316 24.185C38.0267 24.2987 32.5758 30.4418 28.7422 28.9693C24.7328 27.4193 26.815 22.2733 27.5797 20.7285C28.2255 19.4213 28.9385 18.1503 28.9385 18.1503C28.9385 18.1503 28.3237 18.326 27.931 18.4138L26.97 18.6205C26.97 18.6205 25.0738 21.6998 23.9165 23.2395C22.754 24.774 17.8302 30.0595 14.9265 29.0107C12.0228 27.9567 12.741 23.8957 14.3737 20.6665C17.019 15.4378 23.2913 9.01049 27.0733 9.98182C30.8915 10.9583 27.7295 17.1532 27.7295 17.1532C27.7295 17.1532 28.489 17.2513 30.3128 16.0062C32.9323 14.2185 36.3888 9.40832 40.1347 9.97666C41.9017 10.2402 43.5447 12.0433 41.2972 15.474C40.579 16.5745 39.3752 17.5562 38.4555 16.5848C37.882 15.9752 38.3832 14.8798 38.9877 14.1203C39.2222 13.813 39.5285 13.5679 39.8799 13.4067C40.2312 13.2454 40.6167 13.1729 41.0027 13.1955C41.0027 13.1955 41.6227 11.785 40.0468 11.8057C38.7707 11.8315 35.5467 14.8023 33.728 17.799C32.0592 20.5528 29.5275 25.2442 32.0643 26.2672C34.3945 27.2075 38.8275 21.9478 40.8787 19.1888C42.9298 16.435 47.6057 10.1885 51.5323 9.94049C52.8808 9.85266 53.6868 11.0823 53.6868 11.0823L54.1415 10.3642H58.063C58.063 10.3642 50.6747 22.697 50.096 23.627C49.6413 24.3555 49.042 26.0037 50.7005 25.0788C52.3642 24.1592 55.8465 19.69 55.8465 19.69ZM53.7075 39.4473C50.8192 37.4472 47.3602 36.4375 43.8495 36.5695C42.9003 36.5957 41.9707 36.8451 41.1359 37.2975C40.3011 37.7499 39.5846 38.3926 39.0445 39.1735C37.5462 36.5643 34.5908 34.9627 30.0183 34.9988C22.63 35.0815 15.2985 38.4915 9.49633 38.4863C3.93183 38.4863 -0.129174 34.9885 0.00515972 28.773C0.247993 17.8765 9.46016 8.05982 16.3318 3.64232C20.2947 1.11065 23.6117 0.351156 25.7765 0.59399C27.3575 0.769656 29.2588 2.59865 28.0602 5.29049C26.2983 9.22232 23.8648 8.90199 23.9527 7.02132C24.0043 5.79682 24.8207 5.02699 25.4303 4.59815C25.8724 4.36332 26.3661 4.24255 26.8667 4.24682C27.218 3.95232 27.4712 1.79782 24.6502 2.50566C21.8292 3.21349 18.3985 5.99832 15.1435 9.58915C11.8885 13.1852 6.82516 19.9793 5.57483 27.1145C4.99099 30.4212 5.37333 36.4558 13.2215 36.3887C19.871 36.337 29.6773 31.9505 38.688 32.0435C41.8253 32.0311 44.9066 32.8742 47.6005 34.4822C49.9307 35.9185 52.7258 38.0162 53.7178 39.4473" fill="black"/>
</svg>
