<svg width="64" height="64" viewBox="0 0 64 64" fill="none" xmlns="http://www.w3.org/2000/svg">
<g clip-path="url(#clip0_1262_1610)">
<path d="M24.27 17.56C17.1 21.235 14.11 28.97 15.595 36.155C15.94 37.815 16.52 39.44 17.34 40.985C21.425 48.645 32.005 51.2 40.255 46.675C47.41 42.75 51.565 33.32 47.48 25.005C46.745 23.51 45.785 22.105 44.63 20.855C40.04 15.88 32.445 13.375 24.27 17.56Z" fill="url(#paint0_radial_1262_1610)"/>
<path d="M44.625 20.855C40.04 15.88 32.44 13.375 24.27 17.56C17.1 21.235 14.11 28.97 15.595 36.155C15.595 36.155 20.04 36.315 31.86 29.455C43.68 22.595 44.625 20.855 44.625 20.855Z" fill="url(#paint1_radial_1262_1610)"/>
<path d="M19.295 21.44C19.295 21.44 24.735 21.11 26.02 20.51C26.925 20.085 30.54 15.575 30.54 15.575C30.54 15.575 27.46 15.795 24.215 17.515C21.02 19.205 19.295 21.44 19.295 21.44Z" fill="#C6DDCB"/>
<path d="M15.595 36.155C15.595 36.155 20.14 35.755 30.74 29.98C41.34 24.205 44.185 20.395 44.185 20.395C44.185 20.395 45.87 22.04 46.945 23.99C48.05 26.005 48.58 27.78 48.58 27.78L38.71 34.55C38.71 34.55 38.15 32.57 39.445 30.885C40.74 29.205 42.935 27.955 42.635 27.095C42.335 26.235 39.92 27.095 37.895 28.775C35.87 30.455 33.89 32.35 33.155 31.835C32.42 31.32 34.575 29.765 33.67 29.55C32.765 29.335 31.085 30.37 28.715 32.395C26.345 34.42 24.925 36.185 21.345 37.005C18.225 37.72 15.77 36.93 15.77 36.93L15.595 36.155Z" fill="#F8DBAF"/>
<path d="M17.08 40.495C17.08 40.495 19.595 40.94 22.54 39.85C27.065 38.175 28.305 36.07 30.285 35.015C31.29 34.48 32.58 34.395 32.39 36.255C32.19 38.27 28.175 40.84 28.175 40.84L19.485 44.03C19.485 44.03 18.75 43.21 18.15 42.395C17.68 41.745 17.08 40.495 17.08 40.495Z" fill="url(#paint2_radial_1262_1610)"/>
<path d="M22.745 46.58C22.745 46.58 28.93 45.515 37.465 40.455C46 35.395 49.08 31.965 49.08 31.965C49.08 31.965 49.075 32.82 49.035 33.27C48.995 33.72 48.895 34.32 48.895 34.32C48.895 34.32 44.81 38.825 38.3 42.57C30.745 46.92 25.375 47.82 25.375 47.82C25.375 47.82 24.61 47.535 24.04 47.27C23.55 47.05 22.745 46.58 22.745 46.58Z" fill="url(#paint3_radial_1262_1610)"/>
<path d="M16.18 26.815C16.18 26.815 15.94 27.515 15.79 28.11C15.64 28.705 15.485 29.515 15.485 29.515C15.485 29.515 19.285 29.07 28.075 24.495C36.865 19.92 38.82 16.72 38.82 16.72C38.82 16.72 38.135 16.43 37.435 16.195C36.88 16.01 36.135 15.84 36.135 15.84C36.135 15.84 32.235 19.515 26.925 22.195C20.27 25.545 16.18 26.815 16.18 26.815Z" fill="#F6CB89"/>
<path d="M15.34 30.41C15.34 30.41 15.305 30.785 15.28 31.04C15.245 31.405 15.235 31.8 15.235 31.8C15.235 31.8 20.03 31.41 28.86 26.515C37.69 21.62 40.97 17.835 40.97 17.835C40.97 17.835 40.585 17.59 40.23 17.405C39.81 17.18 39.53 17.05 39.53 17.05C39.53 17.05 36.325 21.155 28.15 25.325C18.975 30 15.34 30.41 15.34 30.41Z" fill="#F6CB89"/>
<path d="M43.595 19.815C43.595 19.815 60.22 12.635 63 16.35C65.78 20.07 50.18 30.76 34.245 39.33C18.31 47.9 2.95997 53.41 1.09997 49.495C-0.760025 45.58 15.41 35.165 15.41 35.165C15.41 35.165 15.455 35.425 15.515 35.74C15.57 36.035 15.67 36.53 15.67 36.53L8.48997 42.575L7.58497 46.675L16.47 45.015C16.47 45.015 26.56 41.445 33.115 38.035C39.67 34.625 53.43 24.78 53.43 24.78L57.375 18.19L44.45 20.66C44.45 20.66 44.27 20.475 44.045 20.25C43.805 20.01 43.595 19.815 43.595 19.815Z" fill="#94C7EA"/>
<path d="M15.545 35.895C15.545 35.895 2.43501 43.65 4.11001 47.785C5.63001 51.535 22.22 45.435 36.015 37.565C48.69 30.33 62.335 21.55 59.99 17.64C57.925 14.195 44.045 20.255 44.045 20.255C44.045 20.255 44.195 20.395 44.36 20.57C44.48 20.7 44.615 20.835 44.615 20.835C44.615 20.835 54.955 18.24 55.72 19.77C56.485 21.3 46.115 31.05 35.195 36.715C24.275 42.38 9.51 48.53 8.655 46.05C7.425 42.485 15.715 36.7 15.715 36.7C15.715 36.7 15.635 36.355 15.615 36.245C15.58 36.095 15.545 35.895 15.545 35.895Z" fill="#6BA5AF"/>
<path d="M44.545 20.77C44.545 20.77 56.665 16.1 58.335 18.54C60.005 20.98 50.42 29.03 35.085 37.18C19.75 45.33 7.01502 49.83 5.60002 46.885C4.18502 43.94 15.615 36.245 15.615 36.245C15.615 36.245 15.665 36.47 15.72 36.705C15.775 36.945 15.925 37.49 15.925 37.49C15.925 37.49 8.88502 42.82 9.99502 44.075C11.105 45.33 19.225 44.17 34 36.645C48.925 29.04 54.65 22.425 53.1 20.93C52.09 19.96 45.34 21.68 45.34 21.68C45.34 21.68 45.105 21.4 44.945 21.215C44.79 21.025 44.545 20.77 44.545 20.77Z" fill="#A7CED6"/>
<path d="M45.16 21.465C45.16 21.465 53.345 18.16 54.65 20.74C56.165 23.74 43.49 32.045 33.89 37.275C24.54 42.365 10.5 47.325 9.05 44.765C7.855 42.65 15.8 37.06 15.8 37.06C15.8 37.06 15.865 37.315 15.95 37.61C15.995 37.765 16.09 38.065 16.09 38.065C16.09 38.065 10.765 41.86 11.755 43.34C12.745 44.82 22.875 42.15 33.39 36.66C46.05 30.055 53.485 23.45 52.415 21.7C51.345 19.955 45.72 22.155 45.72 22.155C45.72 22.155 45.565 21.955 45.47 21.835C45.345 21.68 45.16 21.465 45.16 21.465Z" fill="#DDECF6"/>
</g>
<defs>
<radialGradient id="paint0_radial_1262_1610" cx="0" cy="0" r="1" gradientUnits="userSpaceOnUse" gradientTransform="translate(31.769 32.4642) rotate(66.5524) scale(16.9126 57.2362)">
<stop offset="0.119" stop-color="#E8D59A"/>
<stop offset="0.297" stop-color="#E9D297"/>
<stop offset="0.446" stop-color="#EAC78C"/>
<stop offset="0.584" stop-color="#EDB67B"/>
<stop offset="0.621" stop-color="#EEB075"/>
<stop offset="0.903" stop-color="#F5A97F"/>
</radialGradient>
<radialGradient id="paint1_radial_1262_1610" cx="0" cy="0" r="1" gradientUnits="userSpaceOnUse" gradientTransform="translate(24.9471 19.5067) rotate(63.2248) scale(31.1147 87.5443)">
<stop offset="0.219" stop-color="#E3DDA6"/>
<stop offset="0.278" stop-color="#E4D9A0"/>
<stop offset="0.354" stop-color="#E8CD90"/>
<stop offset="0.384" stop-color="#EAC788"/>
</radialGradient>
<radialGradient id="paint2_radial_1262_1610" cx="0" cy="0" r="1" gradientUnits="userSpaceOnUse" gradientTransform="translate(30.3305 34.2625) scale(13.302)">
<stop offset="0.422" stop-color="#F6DFB4"/>
<stop offset="0.984" stop-color="#F9D4A4"/>
</radialGradient>
<radialGradient id="paint3_radial_1262_1610" cx="0" cy="0" r="1" gradientUnits="userSpaceOnUse" gradientTransform="translate(40.643 33.37) scale(18.9095)">
<stop stop-color="#F6DFB4"/>
<stop offset="0.869" stop-color="#F9D4A4"/>
</radialGradient>
<clipPath id="clip0_1262_1610">
<rect width="64" height="64" fill="white"/>
</clipPath>
</defs>
</svg>
