<svg width="124" height="22" viewBox="0 0 124 22" fill="none" xmlns="http://www.w3.org/2000/svg">
<path d="M44.175 0.0880127C48.9335 0.0880127 52.7414 1.27635 55.6502 3.92168C57.6394 5.72485 58.7502 8.29268 58.7192 10.9845C58.7119 12.3127 58.4363 13.6257 57.9089 14.8448C57.3815 16.0638 56.6132 17.1637 55.6502 18.0783C52.9273 20.579 48.6855 21.912 44.1802 21.912C39.6697 21.912 35.5002 20.579 32.736 18.0783C31.7394 17.1876 30.9456 16.0935 30.4081 14.8697C29.8707 13.6459 29.6021 12.321 29.6205 10.9845C29.6205 8.30818 30.7468 5.74035 32.736 3.92168C35.3193 1.57602 39.8867 0.0880127 44.175 0.0880127ZM44.1905 19.0497C46.5724 19.0497 48.7785 18.2178 50.3285 16.6833C51.8785 15.1333 52.5657 13.2733 52.5657 10.9845C52.5657 8.79385 51.801 6.74268 50.3285 5.28568C48.8095 3.78735 46.5414 2.93485 44.1905 2.93485C41.8397 2.93485 39.5767 3.78218 38.0422 5.28568C36.5697 6.74268 35.7998 8.79385 35.7998 10.9845C35.7684 13.1052 36.5741 15.1527 38.0422 16.6833C39.5767 18.2024 41.8294 19.0497 44.1905 19.0497ZM19.1787 8.88168C20.0053 9.09868 20.8062 9.36735 21.5863 9.72385C22.3102 10.0535 22.9724 10.5043 23.5445 11.0568C24.5623 12.1212 25.141 13.5472 25.1255 15.0145C25.1366 15.7925 24.9652 16.5623 24.6252 17.2621C24.2851 17.962 23.7858 18.5724 23.1673 19.0445C22.0733 19.8738 20.8295 20.4843 19.5042 20.8425C17.5093 21.4686 15.4256 21.7653 13.3352 21.7208C11.5165 21.7208 10.5142 21.509 9.13468 21.2197L8.73685 21.137C7.21672 20.8008 5.73228 20.3199 4.30385 19.7007C4.23998 19.6574 4.16394 19.6357 4.08685 19.6387C3.97354 19.6414 3.86579 19.6883 3.78662 19.7694C3.70745 19.8505 3.66315 19.9593 3.66318 20.0727V21.1215H0.625179V13.4852H3.33251C3.34918 14.2593 3.59555 15.011 4.04035 15.6448C5.13568 16.9882 6.31368 17.5048 7.43485 17.9182C9.33101 18.5382 11.3202 18.8688 13.3042 18.9308C16.1613 18.9308 17.8302 18.2385 18.1918 18.0887L18.2383 18.068L18.2693 18.0577C18.5897 17.9388 19.8813 17.4687 19.8813 16.0323C19.8813 14.6167 18.6723 14.3067 17.8818 14.1052L17.7682 14.0793C16.8898 13.8417 14.8645 13.6247 12.6532 13.3922L11.8678 13.3095C9.79416 13.0983 7.73069 12.7967 5.68335 12.4053C3.11035 11.837 2.09768 10.8967 1.46735 10.3128L1.42601 10.2715C0.507135 9.29175 -0.0029384 7.99808 1.27346e-05 6.65485C1.27346e-05 4.09218 1.75668 2.54218 3.91118 1.59151C6.21551 0.558181 8.95385 0.0983502 11.3512 0.0983502C15.5878 0.11385 19.034 1.49335 20.274 2.13402C20.7752 2.40268 21.0232 2.07201 21.0232 1.82401V1.05418H23.746V7.70885H21.3073C21.0884 6.72133 20.5555 5.8313 19.7883 5.17201C19.3208 4.79603 18.8047 4.48493 18.2538 4.24718C16.2097 3.38404 14.0091 2.95307 11.7903 2.98135C9.50151 2.98135 7.31085 3.42052 6.21035 4.09218C5.52835 4.51585 5.17701 5.04801 5.17701 5.67318C5.17701 6.56701 5.93135 6.92352 6.31368 7.03202C7.32635 7.34202 9.57901 7.56418 11.3305 7.73985L12.3845 7.84835C14.074 8.01885 17.6132 8.48902 19.1787 8.88168ZM113.042 3.73052V1.25568H124V3.68401H121.541C120.652 3.68401 120.29 3.85451 119.619 4.60885L112.246 13.0305C112.168 13.1341 112.133 13.2635 112.148 13.3922V17.2258C112.16 17.4041 112.181 17.5817 112.21 17.758C112.254 17.8704 112.323 17.971 112.413 18.0517C112.503 18.1324 112.61 18.1911 112.726 18.223C112.949 18.2558 113.173 18.2731 113.398 18.2747H115.909V20.703H102.61V18.2747H104.987C105.212 18.2731 105.436 18.2559 105.658 18.223C105.776 18.1893 105.886 18.1303 105.978 18.05C106.071 17.9696 106.145 17.87 106.196 17.758C106.227 17.5875 106.242 17.4146 106.242 17.2413V13.4077C106.242 13.2785 106.242 13.2785 106.072 13.077C103.645 10.312 101.213 7.55129 98.7764 4.79485C98.3837 4.38668 97.712 3.73052 96.6787 3.73052H94.3123V1.30218H107.684V3.73052H106.072C105.71 3.73052 105.462 4.09218 105.772 4.48485L110.314 9.91501C110.36 9.97701 110.391 9.97702 110.453 9.93052C110.515 9.88402 115.072 4.53135 115.103 4.48485C115.141 4.43542 115.168 4.37904 115.184 4.31896C115.199 4.25888 115.203 4.19629 115.194 4.1348C115.186 4.07331 115.165 4.01415 115.133 3.96072C115.102 3.90729 115.06 3.86066 115.01 3.82352C114.918 3.76313 114.81 3.73082 114.7 3.73052H113.042ZM80.5742 3.71502H83.08C84.2218 3.71502 84.4233 4.15418 84.4389 5.21851L84.5835 13.3095L71.2432 1.30218H61.7107V3.73052H63.8394C65.3739 3.73052 65.4824 4.57785 65.4824 5.33218V16.766C65.4824 17.4273 65.4875 18.2902 64.542 18.2902H61.9277V20.703H73.1084V18.2747H70.3803C69.285 18.2747 69.2437 17.7735 69.223 16.7092V6.98551L84.5835 20.6823H88.4947L88.288 5.20302C88.3087 4.07668 88.3862 3.69951 89.5435 3.69951H91.9874V1.27118H80.5742V3.71502Z" fill="black"/>
</svg>
