<svg width="92" height="75" viewBox="0 0 92 75" fill="none" xmlns="http://www.w3.org/2000/svg">
<path fill-rule="evenodd" clip-rule="evenodd" d="M28.9169 74.7626H21.7268V68.2205H28.8021V69.669H23.6513V70.7819H28.5271V72.1488H23.6543V73.2758H28.9169V74.7656V74.7626ZM70.2731 74.7626H63.1986V68.3224H70.1643V69.7425H65.0936V70.8366H69.8923V72.181H65.0936V73.2901H70.2731V74.7626ZM38.6625 74.7626H35.755L31.9242 69.8684H31.8887V74.7626H29.9846V68.2205H32.9389L36.7206 73.1177H36.7584V68.2205H38.6655V74.7626H38.6625ZM61.7109 74.7626H58.8034L54.9725 69.8684H54.937V74.7626H53.0246V68.2205H55.979L59.763 73.1177H59.7985V68.2205H61.7109V74.7626ZM44.2825 74.8525C43.6713 74.8525 43.1492 74.8376 42.7094 74.8083C42.3272 74.7882 41.9477 74.7325 41.576 74.642C41.304 74.5745 41.0471 74.4546 40.8235 74.2905C40.6252 74.1371 40.4688 73.9369 40.3686 73.7082C40.2502 73.4313 40.1745 73.1382 40.1442 72.8389C40.1049 72.437 40.0862 72.0333 40.0883 71.6294V71.4361C40.086 71.0294 40.1057 70.6229 40.1472 70.2183C40.1774 69.9201 40.2507 69.6241 40.3686 69.3461C40.4691 69.1182 40.6255 68.9189 40.8235 68.7638C41.0501 68.6014 41.3069 68.485 41.579 68.4213C41.9487 68.3305 42.3261 68.2746 42.7064 68.2542C43.2302 68.2253 43.7548 68.2118 44.2795 68.2137H44.5659C45.0736 68.2137 45.5194 68.225 45.9002 68.2452C46.2304 68.2632 46.5576 68.3014 46.8825 68.3651C47.122 68.4101 47.3494 68.4888 47.5648 68.5997C47.7355 68.6903 47.8836 68.8192 47.9925 68.9804C48.102 69.1475 48.1753 69.3348 48.2078 69.5304C48.2524 69.7792 48.2728 70.031 48.2697 70.2828V70.5316H46.408V70.4529C46.4135 70.3245 46.3903 70.1966 46.34 70.0782C46.2805 69.9673 46.1829 69.8812 46.0649 69.8354C45.8816 69.7657 45.6889 69.7232 45.493 69.7095C45.1688 69.6832 44.8436 69.6705 44.5183 69.6713H44.3566C43.9901 69.6713 43.6803 69.6773 43.4204 69.6915C43.203 69.6973 42.9866 69.7239 42.7744 69.771C42.6273 69.8032 42.4885 69.8649 42.3664 69.9523C42.2623 70.0338 42.1845 70.1437 42.1427 70.2686C42.0878 70.4292 42.056 70.5967 42.0483 70.7661C42.0331 70.9617 42.0248 71.1993 42.0248 71.4743V71.5912C42.0248 71.861 42.0331 72.0918 42.0483 72.2851C42.0573 72.4523 42.086 72.6164 42.1427 72.7737C42.1843 72.8974 42.2636 73.0053 42.3671 73.087C42.488 73.1754 42.6301 73.2369 42.7744 73.2661C42.9867 73.3126 43.202 73.3388 43.4204 73.3485C43.6803 73.3598 43.9901 73.368 44.3566 73.3658H44.519C44.8167 73.3658 45.0736 73.3658 45.289 73.3508C45.5043 73.3358 45.6841 73.3208 45.8322 73.2983C45.9531 73.2833 46.071 73.2481 46.1836 73.2009C46.2643 73.1659 46.3351 73.1119 46.3899 73.0435C46.4369 72.9768 46.4691 72.901 46.4843 72.821C46.4994 72.7213 46.5077 72.6186 46.5077 72.5197V72.3376H43.9758V71.0734H48.343V72.528C48.3468 72.8037 48.3287 73.0817 48.2849 73.3538C48.2494 73.5703 48.1723 73.7809 48.0605 73.9683C47.9509 74.1406 47.8066 74.2875 47.6298 74.3954C47.4167 74.5221 47.184 74.6127 46.9392 74.6652C46.6101 74.7407 46.2752 74.7886 45.938 74.8083C45.5489 74.8346 45.097 74.8495 44.578 74.8495L44.2825 74.8525ZM51.6223 74.7776H49.6887V68.2819H51.6223V74.7776ZM6.90449 64.795C5.96907 64.795 5.15153 64.7688 4.44581 64.7186C3.8318 64.6834 3.22175 64.5982 2.62183 64.4638C2.17575 64.3686 1.74744 64.2048 1.35245 63.9782C1.0302 63.7833 0.756024 63.5193 0.550015 63.2056C0.340196 62.8674 0.196878 62.4928 0.127643 62.1017C0.0392822 61.6081 -0.00220479 61.1073 0.0037266 60.606V53.226H3.39782V59.5141C3.39782 59.9038 3.4099 60.2373 3.43937 60.5183C3.45675 60.7611 3.51342 60.9979 3.60485 61.2264C3.68418 61.4138 3.80885 61.5779 3.97055 61.7038C4.15944 61.8387 4.37479 61.9346 4.60222 61.9878C4.91805 62.0665 5.24295 62.1137 5.5671 62.128C5.95094 62.1519 6.4058 62.1602 6.93698 62.1602H7.22334C7.75452 62.1602 8.20938 62.1489 8.59246 62.125C8.91736 62.1077 9.24227 62.0635 9.5581 61.9901C9.7878 61.9406 10.0009 61.8439 10.1898 61.7068C10.3496 61.5808 10.4744 61.4165 10.5525 61.2294C10.6469 61.0046 10.7036 60.7641 10.724 60.5213C10.7504 60.2365 10.7617 59.9038 10.7617 59.5261V53.2237H14.1566V60.603C14.1589 61.1035 14.1211 61.6011 14.041 62.0957C13.9778 62.4876 13.8385 62.8635 13.6307 63.2026C13.4297 63.5172 13.1582 63.7816 12.8373 63.9752C12.4436 64.203 12.0163 64.3681 11.571 64.4645C10.9688 64.5994 10.3545 64.6834 9.73793 64.7193C8.91159 64.7706 8.08378 64.7948 7.25583 64.792L6.90449 64.795ZM31.597 64.6541H26.5233L19.8469 56.0946H19.7819V64.6541H16.4566V53.2088H21.6067L28.2037 61.7742H28.2687V53.2088H31.5947V64.6489L31.597 64.6541ZM41.5934 58.9873C42.1805 58.9873 42.6437 58.97 42.9927 58.9348C43.2694 58.9185 43.5391 58.8425 43.7831 58.7123C43.9576 58.6073 44.0846 58.4402 44.1344 58.2439C44.1961 57.9839 44.2241 57.7173 44.2175 57.4503V57.2539C44.2238 56.9902 44.1958 56.7268 44.1344 56.4701C44.1091 56.3736 44.0644 56.2832 44.0032 56.2042C43.9419 56.1251 43.8653 56.0591 43.7778 56.01C43.5314 55.8837 43.2607 55.8109 42.9837 55.7964C42.5214 55.7566 42.0574 55.7391 41.5934 55.7439H37.3667V58.9873H41.5934ZM47.632 64.6549H44.2825V63.7264C44.2855 63.4364 44.2704 63.1494 44.241 62.8631C44.2226 62.6502 44.1645 62.4426 44.0695 62.2509C43.9841 62.0875 43.857 61.9492 43.7007 61.8499C43.509 61.7333 43.2967 61.6539 43.0751 61.6161C42.7587 61.5541 42.4378 61.5167 42.1155 61.5045C41.6635 61.4829 41.211 61.4732 40.7585 61.4752H37.3667V64.6549H34.0088V53.2095H42.955C43.7319 53.1951 44.5085 53.2528 45.2746 53.3819C45.7914 53.4597 46.2822 53.6583 46.7064 53.9611C47.0578 54.2339 47.3109 54.6116 47.4318 55.0358C47.5769 55.5746 47.6449 56.1336 47.6298 56.6897V57.0943C47.6353 57.4897 47.6009 57.8846 47.527 58.2731C47.4651 58.5804 47.3494 58.8764 47.1817 59.1424C47.0227 59.3847 46.8132 59.5904 46.5674 59.7457C46.281 59.918 45.9682 60.0379 45.6411 60.1054V60.1728C45.9803 60.223 46.3135 60.3047 46.6354 60.4246C46.8802 60.513 47.0903 60.6682 47.2467 60.8757C47.4084 61.1103 47.5119 61.3793 47.5504 61.6603C47.6094 62.0703 47.6388 62.4832 47.6298 62.8983V64.6489L47.632 64.6549ZM62.372 64.6541H49.8368V53.2088H62.174V55.7379H53.1954V57.6848H61.6988V60.0731H53.1954V62.0463H62.372V64.6541ZM73.7073 60.2193L71.3551 55.6293H71.272L68.9403 60.2193H73.7073ZM79.6432 64.6631H75.9861L74.9291 62.6076H67.7336L66.6947 64.6631H63.0641L69.2599 53.223H73.4209L79.6432 64.6631ZM92 64.6631H80.8906V53.223H84.2817V62.0081H92V64.6684V64.6631ZM59.8665 26.8101C59.4653 28.733 57.6768 33.6715 51.9714 36.3446L49.6812 33.7892L45.8179 37.644C43.6177 37.6148 41.4541 37.0815 39.4961 36.0857C37.5382 35.0899 35.8389 33.6586 34.5309 31.9037C34.9423 32.0301 35.367 32.1088 35.7965 32.1383C36.4282 32.1495 37.1135 31.9209 37.1135 30.862V20.4673C37.1238 20.1997 37.0704 19.9335 36.9575 19.6903C36.8446 19.4471 36.6754 19.2337 36.4637 19.0674C36.2528 18.9 36.0049 18.7843 35.7403 18.7299C35.4757 18.6754 35.2019 18.6838 34.9412 18.7542C33.152 19.1589 31.7209 23.5877 31.7209 23.5877C31.7016 21.5426 32.1314 19.5178 32.9806 17.654C33.8298 15.7903 35.0779 14.1322 36.6383 12.7951C39.3032 10.5552 41.9062 9.77955 43.8843 9.4753C41.9304 10.5791 40.8318 12.3822 40.8318 13.8952C40.8318 16.3224 42.3074 16.0354 42.7479 15.675V29.714C42.8212 29.8931 42.9157 30.0565 43.0335 30.2116C43.2288 30.4798 43.4864 30.6975 43.7844 30.8462C44.0824 30.9949 44.4121 31.0703 44.7457 31.0659C46.2244 31.0659 48.1458 29.3917 48.1458 29.3917V18.025C48.1458 16.8687 47.2663 15.4696 46.3868 14.993C46.3868 14.993 48.0129 14.7083 49.2732 15.663C49.5097 15.376 49.7605 15.1009 50.0257 14.8402C52.9536 11.9865 55.7168 11.1787 58.0183 10.771C58.0183 10.771 53.8301 14.0353 53.8301 18.4087C53.8301 21.6611 53.9132 29.5971 53.9132 29.5971C55.4743 31.0809 57.7818 28.9384 59.8665 26.8101Z" fill="black"/>
<path fill-rule="evenodd" clip-rule="evenodd" d="M45.9999 0.338761C33.1134 0.338761 22.6652 10.7013 22.6652 23.4821C22.6652 36.2666 33.1164 46.6254 46.0029 46.6254C58.8925 46.6254 69.3407 36.2629 69.3377 23.4791C69.3377 10.6983 58.8895 0.335763 45.9999 0.338761ZM45.9999 45.6969C33.6272 45.6999 23.5983 35.7525 23.5953 23.4813C23.5953 11.2101 33.6242 1.2635 45.9999 1.2635C58.3726 1.26051 68.4015 11.2101 68.4015 23.4791C68.4015 35.7503 58.3726 45.6969 45.9999 45.6969Z" fill="black"/>
</svg>
