<svg width="124" height="27" viewBox="0 0 124 27" fill="none" xmlns="http://www.w3.org/2000/svg">
<path d="M51.3607 21.385H48.1323L44.9742 9.10668L41.7882 21.385H38.4884L34.1501 5.42626H37.0804L40.2094 18.1262L43.6231 5.42626H46.5816L49.7962 18.199L52.769 5.42626H55.5995L51.3607 21.385ZM59.7385 6.58998C59.7385 7.0096 59.5939 7.34871 59.3045 7.63283L59.2691 7.66651C58.9705 7.95757 58.6007 8.10297 58.1599 8.10297C57.7188 8.10297 57.349 7.95757 57.0502 7.66651C56.7516 7.37571 56.5951 7.02644 56.5951 6.58998C56.5951 6.15352 56.7516 5.78989 57.0504 5.48447C57.3631 5.19341 57.7329 5.04801 58.1596 5.04801C58.6149 5.04801 58.9845 5.19341 59.2834 5.49883C59.5701 5.79237 59.7256 6.13916 59.7377 6.5397L59.7385 6.58998ZM56.8085 21.385V9.8924H59.4255V21.385H56.8085ZM72.1557 21.385H69.5243V14.9838C69.5243 13.3108 69.0121 11.856 67.3623 11.856C65.7122 11.856 64.674 13.369 64.674 14.8966V21.3847H62.1138V9.8924H64.674V11.5072H64.7166C65.5701 10.1542 66.7934 9.68879 68.4005 9.68879C69.6095 9.68879 70.5342 9.99421 71.2026 10.7797C71.8711 11.5654 72.1557 12.7581 72.1557 14.3729V21.385ZM82.3963 21.385V19.9012H82.3537C81.5431 21.2976 79.8788 21.6178 78.7267 21.6178C75.2847 21.6178 74.0188 18.8827 74.0188 15.9733C74.0188 14.0385 74.4882 12.4963 75.4269 11.3472C76.3799 10.1832 77.6458 9.67417 79.2244 9.67417C81.6852 9.67417 82.3537 11.0707 82.3537 11.0707H82.3963V4.4223H85.0563V21.385H82.3963ZM82.4249 14.824C82.4249 13.4418 81.5571 11.8565 79.7083 11.8565C77.6032 11.8565 76.778 13.7328 76.778 15.9005C76.778 17.7918 77.5463 19.4938 79.5518 19.5227C81.4949 19.5227 82.3786 17.6407 82.4099 16.0648L82.4249 14.824ZM98.4688 15.5805C98.4688 19.5666 96.1363 21.7194 92.6515 21.7194C88.854 21.7194 86.9053 19.3919 86.9053 15.8277C86.9053 11.7544 89.2379 9.63058 92.9358 9.63058C96.3071 9.63058 98.4688 11.8416 98.4688 15.5805ZM95.7379 15.6677C95.7379 13.8929 95.1264 11.929 92.7796 11.929C90.5321 11.929 89.6506 13.6457 89.6506 15.7405C89.6506 18.0244 90.7029 19.4645 92.751 19.4645C94.9477 19.4645 95.7086 17.7677 95.7372 15.7296L95.7379 15.6677ZM112.55 21.3847H109.663L107.458 13.0638L105.083 21.385H102.281L99.0094 9.92139H101.755L103.888 18.8244L106.391 9.92139H108.966L111.199 18.8101L113.275 9.92139H115.793L112.55 21.3847ZM124 18.1846C124 20.7452 121.724 21.7489 119.449 21.7489C117.969 21.7489 116.49 21.1668 116.49 21.1668V18.4464L116.542 18.4905C116.798 18.7011 117.981 19.5975 119.562 19.6102C120.785 19.6102 121.34 19.2176 121.34 18.4611C121.368 17.8658 121.031 17.5329 120.619 17.2874L120.517 17.2285C120.219 17.059 119.785 16.8416 119.193 16.5991C118.453 16.279 117.898 15.959 117.543 15.6533C117.187 15.3479 116.917 14.9989 116.746 14.5914C116.575 14.1842 116.447 13.7331 116.447 13.1948C116.447 11.129 118.14 9.66006 120.828 9.66006C122.606 9.66006 123.374 10.1109 123.374 10.1109V12.6712L123.317 12.6325C123.057 12.4599 121.945 11.7693 120.8 11.7693C119.861 11.7693 119.15 12.1185 119.136 12.9186C119.136 13.9367 120.359 14.446 121.084 14.7368C122.123 15.1619 122.892 15.6144 123.326 16.1349L123.36 16.177C123.803 16.7157 123.99 17.2406 124 18.115L124 18.1846ZM0 0H12.417V12.6999H0V0ZM13.7824 0H26.1994V12.6999H13.7824V0ZM0 14.0965H12.417V26.7964H0V14.0965ZM13.7824 14.0965H26.1994V26.7964H13.7824V14.0965Z" fill="#0078D4"/>
</svg>
