<svg width="28" height="33" viewBox="0 0 28 33" fill="none" xmlns="http://www.w3.org/2000/svg">
<path d="M3.21653 8.69744L21.6013 27.0822C21.9919 27.4728 22.625 27.4728 23.0155 27.0822L24.7833 25.3144C25.1738 24.9239 25.1738 24.2908 24.7833 23.9002L6.39851 5.51546C6.00797 5.12491 5.37484 5.12491 4.9843 5.51546L3.21653 7.28322C2.82599 7.67377 2.82599 8.30689 3.21653 8.69744Z" fill="white"/>
<path d="M6.39861 27.0822L24.7834 8.6974C25.1739 8.30685 25.1739 7.67373 24.7834 7.28318L23.0156 5.51542C22.6251 5.12487 21.9919 5.12487 21.6014 5.51542L3.21663 23.9002C2.82608 24.2907 2.82608 24.9239 3.21663 25.3144L4.9844 27.0822C5.37494 27.4727 6.00806 27.4727 6.39861 27.0822Z" fill="white"/>
</svg>
