<svg xmlns="http://www.w3.org/2000/svg"><symbol id="icon-astronaute" viewBox="0 0 64 64"><g clip-path="url(#a)"><path d="M32 2.875c-2.01 0-4.047.466-6.022 1.28-.266.816-.485 1.845-.61 2.97-.164 1.473-.216 3.088-.234 4.602 4.233-.463 9.499-.463 13.732 0-.018-1.514-.07-3.13-.234-4.603-.125-1.124-.344-2.153-.61-2.969-1.975-.814-4.012-1.28-6.022-1.28Zm12.57 2.417a29.67 29.67 0 0 1 3.286 2.904 5.13 5.13 0 0 1 1.128-2.212l-4.413-.692Zm-21.253.186c-4.335 2.527-8.131 6.589-10.32 10.792-4.134 7.942-4.96 19.619-.066 26.85 3.667 5.415 12.104 7.505 19.069 7.505 6.966 0 15.402-2.09 19.068-7.506 4.896-7.23 4.07-18.907-.066-26.85-2.188-4.202-5.984-8.264-10.319-10.791.073.456.133.923.185 1.398.19 1.712.24 3.524.252 5.158 2.338.394 4.13.966 4.88 1.716 4 4 9.442 16.837 2 28-4.707 7.06-27.293 7.06-32 0-7.442-11.163-2-24 2-28 .75-.75 2.542-1.322 4.88-1.716.013-1.634.062-3.447.252-5.158.052-.475.112-.942.185-1.398ZM8 6a2 2 0 0 0-1.125 3.653v8.534l2.25-1.687V9.651A2 2 0 0 0 8 6Zm44.851.46a2.858 2.858 0 0 0-2.875 2.875 2.858 2.858 0 0 0 2.875 2.875 2.858 2.858 0 0 0 2.875-2.875 2.858 2.858 0 0 0-2.875-2.875Zm3.16 6.9a5.092 5.092 0 0 1-3.436 1.092c.101.18.2.363.297.546l3.732 2.799-.594-4.436Zm-29.854.313c-2.157.011-4.657.47-6.654 2.015-3.329 2.576-5.379 14.345-4.186 18.345 2.073-7.72 4-15.502 13.49-20.159a16.67 16.67 0 0 0-2.65-.2ZM9.276 19.2l-4.257 3.193-1.81 9.051L7.98 37.17c-1.367-5.815-.72-12.34 1.296-17.97Zm45.448 0c2.017 5.63 2.663 12.156 1.295 17.97l4.772-5.726-1.81-9.051-4.257-3.193ZM13.331 46.991a3.32 3.32 0 0 0-1.286.805c-.517.517-.835 1.178-.895 1.763.026.045.075.144.216.27.307.273.837.646 1.516 1.045 1.358.797 3.319 1.72 5.526 2.578 2.647 1.03 5.668 1.962 8.467 2.547v-3.451c-4.934-.64-9.987-2.29-13.544-5.557Zm37.338 0c-3.557 3.266-8.61 4.916-13.544 5.556V56c2.798-.585 5.82-1.518 8.467-2.548 2.207-.858 4.168-1.78 5.526-2.578.68-.398 1.21-.77 1.516-1.044.14-.126.19-.225.216-.27-.06-.585-.378-1.247-.895-1.764a3.32 3.32 0 0 0-1.286-.804ZM9.665 51.325 2.25 56.27v5.481h4.625V59.5h2.25v2.25h45.75V59.5h2.25v2.25h4.625v-5.481l-7.415-4.944-.203.182c-.49.438-1.117.862-1.875 1.307-1.517.89-3.556 1.843-5.85 2.734-4.585 1.784-10.126 3.327-14.407 3.327-4.281 0-9.822-1.543-14.408-3.326-2.293-.892-4.332-1.845-5.85-2.735-.757-.445-1.384-.87-1.874-1.307-.068-.06-.136-.12-.203-.182Zm19.46 1.448v3.624c1.03.145 2.002.228 2.875.228.873 0 1.846-.083 2.875-.228v-3.624a40.628 40.628 0 0 1-5.75 0Z"/></g><defs><clipPath id="a"><path d="M0 0h64v64H0z"/></clipPath></defs></symbol><symbol id="icon-basket" viewBox="0 0 14 14"><path fill-rule="evenodd" clip-rule="evenodd" d="M13.4 6.991a6.405 6.405 0 0 1-.504 2.488 6.436 6.436 0 0 1-2.318 2.811c-.342.23-.707.429-1.087.59a6.431 6.431 0 0 1-4.983 0 6.465 6.465 0 0 1-1.087-.59 6.445 6.445 0 0 1-2.318-2.81A6.37 6.37 0 0 1 .73 5.705a6.354 6.354 0 0 1 .964-2.288 6.453 6.453 0 0 1 1.728-1.725A6.337 6.337 0 0 1 5.71.73a6.45 6.45 0 0 1 3.78.372 6.419 6.419 0 0 1 2.815 2.315A6.33 6.33 0 0 1 13.4 6.991ZM4.668 2.055a5.466 5.466 0 0 0-3.017 3.81c.144.002 2.422.03 5.046-.665a32.862 32.862 0 0 0-2.03-3.145ZM7.15 6.04c-2.814.841-5.515.78-5.612.777-.001.059-.004.116-.004.174 0 1.402.53 2.68 1.4 3.647-.001-.003 1.494-2.653 4.444-3.605.071-.024.144-.045.215-.065-.137-.31-.286-.621-.443-.928Zm3.46-3.145A5.444 5.444 0 0 0 7 1.534c-.444 0-.875.053-1.288.153.082.11 1.108 1.47 2.043 3.183 2.062-.772 2.84-1.955 2.854-1.975ZM7.965 7.872l-.036.012c-3.225 1.122-4.278 3.385-4.29 3.41a5.46 5.46 0 0 0 5.494.722 22.696 22.696 0 0 0-1.168-4.144Zm2.088 3.645a5.458 5.458 0 0 0 2.342-3.66 7.94 7.94 0 0 0-3.406-.238 23.594 23.594 0 0 1 1.064 3.898ZM8.176 5.684a17.22 17.22 0 0 1 .481 1.074c1.878-.236 3.727.16 3.806.177a5.425 5.425 0 0 0-1.242-3.41c-.01.014-.887 1.279-3.045 2.159Z"/></symbol><symbol id="icon-blender" viewBox="0 0 124 41"><g clip-path="url(#a)"><path d="M20.092 21.894c.073-1.236.704-2.327 1.654-3.099.93-.759 2.185-1.225 3.552-1.225 1.366 0 2.621.466 3.552 1.225.95.772 1.58 1.863 1.654 3.099.068 1.27-.46 2.45-1.394 3.327-.95.89-2.3 1.449-3.812 1.449-1.511 0-2.868-.56-3.817-1.45-.93-.875-1.462-2.056-1.39-3.326Z"/><path d="M11.805 24.4c.012.485.173 1.423.41 2.161a11.344 11.344 0 0 0 2.56 4.262c1.225 1.303 2.733 2.35 4.475 3.094a14.9 14.9 0 0 0 5.875 1.173 14.906 14.906 0 0 0 5.876-1.195 13.314 13.314 0 0 0 4.476-3.106c1.19-1.274 2.047-2.715 2.556-4.269.252-.785.413-1.582.478-2.383a10.656 10.656 0 0 0-1.711-6.663 12.145 12.145 0 0 0-2.974-3.16h.004L21.788 5.418c-.011-.008-.02-.02-.03-.022-.793-.586-2.121-.586-2.99 0-.877.591-.976 1.571-.195 2.19h-.004l5.022 3.933-15.307.014h-.02c-1.267 0-2.483.801-2.722 1.811-.248 1.028.61 1.88 1.926 1.884v.008l7.76-.015L1.38 25.449a.274.274 0 0 0-.054.037c-1.305.96-1.73 2.562-.907 3.575.835 1.028 2.611 1.032 3.932.004l7.556-5.948s-.111.801-.104 1.285l.001-.001Zm19.418 2.69c-1.558 1.527-3.736 2.39-6.098 2.399-2.361.003-4.539-.857-6.097-2.38a7.036 7.036 0 0 1-1.665-2.507 6.28 6.28 0 0 1-.379-2.8 6.382 6.382 0 0 1 .834-2.638 7.302 7.302 0 0 1 1.85-2.12c1.515-1.188 3.44-1.831 5.457-1.831 2.017-.004 3.943.633 5.455 1.817.75.58 1.38 1.297 1.853 2.112.463.808.75 1.698.834 2.637a6.22 6.22 0 0 1-.383 2.797 6.948 6.948 0 0 1-1.661 2.514ZM102.588 21.876c.118-1.252 1.122-2.04 2.652-2.04 1.531 0 2.534.788 2.653 2.04h-5.305Zm5.148 3.08c-.395.927-1.317 1.475-2.576 1.475-1.57 0-2.629-.946-2.672-2.44h9.041v-.44c0-3.736-2.281-5.84-6.369-5.84-3.965 0-6.365 2.123-6.365 5.45 0 3.343 2.437 5.463 6.365 5.463 2.362 0 4.188-.778 5.316-2.146l-2.74-1.522Zm-45.26-3.076c.12-1.248 1.123-2.038 2.657-2.038 1.53 0 2.53.79 2.648 2.038h-5.304Zm5.149 3.083c-.39.928-1.317 1.475-2.576 1.475-1.57 0-2.63-.945-2.672-2.44h9.038v-.435c0-3.743-2.278-5.844-6.366-5.844-3.97 0-6.362 2.123-6.362 5.449 0 3.345 2.434 5.46 6.362 5.46 2.358 0 4.188-.775 5.32-2.141l-2.744-1.524Zm-13.007-9.509h3.258V28.29h-3.258V15.454Zm17.608 3.413h3.276v.762c1.164-1.191 2.558-1.794 4.127-1.794 1.81 0 3.18.603 3.889 1.628.593.848.632 1.868.632 3.213v5.613h-3.285v-4.93c0-2.05-.429-2.992-2.293-2.992-1.887 0-3.07 1.08-3.07 2.898v5.025h-3.276v-9.423ZM94.71 23.32c0 1.759-1.22 2.91-3.108 2.91-1.887 0-3.109-1.114-3.109-2.89 0-1.803 1.203-2.913 3.11-2.913 1.886 0 3.107 1.132 3.107 2.893Zm0-4.029c-.83-.853-2.029-1.323-3.698-1.323-3.594 0-6.05 2.134-6.05 5.334 0 3.136 2.437 5.33 5.993 5.33 1.63 0 2.825-.398 3.755-1.289v.946h3.28V14.64l-3.28.815v3.837Zm-47.544 1.136c1.906 0 3.104 1.113 3.104 2.916 0 1.777-1.217 2.887-3.104 2.887-1.888 0-3.104-1.151-3.104-2.909 0-1.762 1.216-2.894 3.104-2.894Zm-3.104-4.973-3.28-.811v13.65h3.28v-.946c.922.89 2.12 1.285 3.755 1.285 3.555 0 5.99-2.194 5.99-5.33 0-3.2-2.457-5.334-6.052-5.334-1.669 0-2.867.47-3.693 1.326v-3.84Zm68.274 12.839v-9.426h3.281v.584c.984-1.14 2.021-1.707 3.204-1.707.237 0 .533.039.922.076v2.685c-.314-.037-.665-.037-1.04-.037-1.907 0-3.086 1.21-3.086 3.266v4.559h-3.281ZM122.545 16.998h.122c.081 0 .141-.018.184-.06a.214.214 0 0 0 .047-.075.205.205 0 0 0 .014-.088c0-.078-.023-.134-.061-.164a.35.35 0 0 0-.199-.045h-.108l.001.432Zm.689-.222a.367.367 0 0 1-.066.228.382.382 0 0 1-.195.143l.414.642h-.368l-.321-.552h-.153v.552h-.322v-1.46h.444c.191 0 .337.04.429.119.092.071.138.179.138.328Zm-1.792.282c.001-.215.059-.425.169-.61.11-.187.268-.34.459-.449a1.347 1.347 0 0 1 1.286.001c.191.112.345.26.46.447.122.19.183.395.183.61 0 .22-.057.425-.169.611a1.38 1.38 0 0 1-.474.448 1.27 1.27 0 0 1-.643.163 1.24 1.24 0 0 1-.643-.164 1.19 1.19 0 0 1-.459-.446 1.15 1.15 0 0 1-.169-.611Zm.215 0c0 .19.045.365.137.521.092.15.219.276.382.372.174.09.353.135.537.135a1.11 1.11 0 0 0 .536-.134c.164-.088.301-.217.398-.373a1.01 1.01 0 0 0 .137-.521.939.939 0 0 0-.152-.506 1.008 1.008 0 0 0-.383-.372 1.044 1.044 0 0 0-1.057-.017c-.163.09-.3.218-.398.373-.092.16-.137.336-.137.522Z"/></g><defs><clipPath id="a"><path d="M0 0h124v41H0z"/></clipPath></defs></symbol><symbol id="icon-chevron-right" viewBox="0 0 24 25"><path fill-rule="evenodd" clip-rule="evenodd" d="M7.293 4.793a1 1 0 0 1 1.414 0l7 7a1 1 0 0 1 0 1.414l-7 7a1 1 0 0 1-1.414-1.414l6.293-6.293-6.293-6.293a1 1 0 0 1 0-1.414Z"/></symbol><symbol id="icon-cocacola" viewBox="0 0 124 40"><path d="M86.867 3.539s-2.325.93-5.027 3.906c-2.707 2.981-4.278 6.33-3.115 7.218.449.34 1.482.408 3.358-1.292a14.79 14.79 0 0 0 3.957-5.492c1.21-2.945.827-4.304.827-4.34Zm14.792 5.363c-3.002-1.545-5.197-3.43-7.481-4.598-2.18-1.116-3.59-1.587-5.353-1.349a5.46 5.46 0 0 0-.723.181s.91 3.1-2.702 8.303c-3.658 5.28-6.975 5.244-7.92 3.792-.987-1.53.289-4.65 2.417-7.424 2.232-2.904 6.149-5.312 6.149-5.312s-1.246-.764-4.315.982c-2.996 1.684-8.147 5.72-12.926 12.519-4.785 6.8-5.736 10.54-6.418 13.485-.681 2.945-.062 6.096 3.204 6.096 3.265 0 7.068-4.98 8.143-6.711 1.994-3.224 3.29-8.168.578-7.492-1.338.336-2.418 1.814-3.1 3.24-.43.915-.76 1.875-.981 2.862-.95.39-1.842.909-2.651 1.54-.899.667-1.74 1.41-2.511 2.222 0 0 .01-2.357 1.886-6.17 1.88-3.807 5.322-5.549 7.275-5.714 1.756-.14 4.045 1.354 2.108 6.856-1.938 5.503-7.663 12.194-13.671 12.276-5.544.078-9.177-7-1.458-19.349C69.755 5.482 79.78 1.297 83.03.832c3.254-.465 4.314.966 4.314.966A13.996 13.996 0 0 1 93.526.78c3.978.269 7.047 3.08 11.108 5.058a60.803 60.803 0 0 0-2.971 3.059m17.846-4.599c-2.754 1.767-6.562 3.37-10.225 3.028a54.154 54.154 0 0 0-2.909 3.276c6.345 1.255 11.91-2.682 14.865-6.03A19.724 19.724 0 0 0 124 .615a24.752 24.752 0 0 1-4.49 3.683Zm-8.453 17.893a1.35 1.35 0 0 0 .119-.264.639.639 0 0 0-.584-.558c-.604-.026-1.431.088-3.59 2.48a32.574 32.574 0 0 0-4.599 6.526c-1.24 2.263-1.741 3.947-1.033 4.381.232.121.502.149.754.078.481-.114 1.028-.569 1.86-1.525.388-.454.817-1.095 1.333-1.803 1.431-1.942 5.027-8.075 5.74-9.315Zm-22.47 2.604c.362-.94.822-2.796-.134-3.524-1.028-.775-3.642 1.038-3.658 2.898-.015 1.907 1.845 2.765 2.29 2.889.258.067.34.051.464-.15.395-.68.742-1.386 1.039-2.113Zm-1.978 3.461a7.909 7.909 0 0 1-1.798-1.147 5.766 5.766 0 0 1-1.344-1.638c-.04-.061-.077-.015-.118.042-.037.051-.202.201-1.597 2.242-1.395 2.046-3.534 6.283-1.602 7.001 1.246.465 3.312-1.71 4.444-3.152a26.914 26.914 0 0 0 2.077-3.172c.062-.119 0-.15-.062-.176Zm21.999 4.893c-.527.842-1.126 2.46.605 1.452 2.118-1.22 5.136-5.802 5.136-5.802h1.369a45.91 45.91 0 0 1-4.149 5.446c-2.144 2.376-4.764 4.541-6.613 4.324-2.15-.248-1.478-3.08-1.478-3.08s-3.079 3.282-5.218 3.049c-2.878-.32-2-3.88-2-3.88s-3.255 3.999-5.477 3.875c-3.477-.207-2.603-4.438-1.632-7.42.517-1.59.997-2.841.997-2.841s-.346.088-1.085.196c-.393.057-1.095.098-1.095.098s-1.447 2.558-2.61 4.092c-1.157 1.535-6.086 6.83-8.99 5.771-2.676-.981-1.787-5.084-.227-8.344 2.273-4.753 8.68-11.588 12.38-10.684 3.828.93.087 7.915.087 7.915s0 .026.036.047c.078.025.28.051.74-.042a8.296 8.296 0 0 0 1.4-.413s3.854-8.065 8.106-13.346C103.142 8.292 111.626-.8 114.958 1.4c.806.542.445 2.402-.651 4.66-.494.16-.995.295-1.503.403.733-1.333 1.219-2.454 1.364-3.24.501-2.727-5.864 3.023-10.411 9.198a85.76 85.76 0 0 0-7.28 11.78 19.915 19.915 0 0 0 2.346-1.675 67.21 67.21 0 0 0 5.776-5.388 63.037 63.037 0 0 0 4.914-5.673c.484-.024.967-.074 1.446-.15a62.171 62.171 0 0 1-5.425 6.406c-1.808 1.835-3.771 3.808-5.482 5.245a45.613 45.613 0 0 1-4.81 3.57s-3.978 8.024-1.813 8.535c1.27.31 3.782-3.565 3.782-3.565s3.281-4.996 5.254-7.254c2.697-3.064 5.012-4.836 7.337-4.867 1.348-.026 2.144 1.41 2.144 1.41l.636-.981h3.911s-7.306 12.39-7.89 13.325m10.907-28.83c-2.754 1.762-6.562 3.363-10.225 3.022a54.136 54.136 0 0 0-2.914 3.276c6.35 1.256 11.909-2.676 14.87-6.03A19.753 19.753 0 0 0 124 .615a24.752 24.752 0 0 1-4.49 3.683m-54.922 6.087h-3.72l-2.102 3.4h3.72l2.102-3.4ZM46.97 22.149c1.586-2.17 5.952-9.77 5.952-9.77a.64.64 0 0 0-.578-.558c-.605-.03-1.613.176-3.617 2.682-2 2.506-3.555 4.495-4.686 6.572-1.24 2.263-1.788 3.86-1.07 4.293.23.116.495.143.744.078.465-.114 1.075-.584 1.907-1.54a28.79 28.79 0 0 0 1.353-1.757M27.016 11.868c-1.028-.775-3.642 1.038-3.657 2.893-.016 1.907 2.355 2.49 2.66 2.5.09.009.18-.01.259-.051a.311.311 0 0 0 .124-.14c.28-.546.531-1.107.754-1.679.362-.945.816-2.795-.14-3.523Zm-1.55 6.561a8.667 8.667 0 0 1-2.015-.93 4.195 4.195 0 0 1-1.441-1.596c-.036-.062-.078-.016-.114.041-.036.052-.242.315-1.643 2.367-1.395 2.056-3.472 6.251-1.529 6.974 1.24.465 3.327-1.725 4.464-3.162a37.405 37.405 0 0 0 2.35-3.518c.047-.124 0-.155-.072-.176Zm30.38 1.261h1.36s-6.826 9.879-10.685 9.419c-2.15-.253-1.514-2.909-1.514-2.909s-3.023 3.54-5.802 2.821c-2.517-.646-.889-4.836-.889-4.836-.29.114-5.74 6.257-9.574 4.784-4.01-1.55-1.927-6.696-1.162-8.24.646-1.308 1.359-2.579 1.359-2.579s-.615.176-1.008.264l-.961.206s-1.896 3.08-3.053 4.62c-1.163 1.534-6.087 6.82-8.99 5.77-2.904-1.053-2.186-5.114-.553-8.344 2.645-5.228 8.917-11.656 12.7-10.684 3.817.976.655 7.171.655 7.171s.76.098 2.584-1.147c2.62-1.787 6.076-6.598 9.822-6.03 1.767.264 3.41 2.067 1.162 5.498-.718 1.1-1.922 2.082-2.841 1.11-.574-.609-.073-1.704.532-2.464a2.36 2.36 0 0 1 2.015-.925s.62-1.41-.956-1.39c-1.276.027-4.5 2.997-6.319 5.994-1.669 2.754-4.2 7.445-1.664 8.468 2.33.94 6.764-4.32 8.815-7.078 2.05-2.754 6.727-9 10.653-9.249 1.349-.087 2.155 1.142 2.155 1.142l.455-.718h3.921s-7.388 12.333-7.967 13.263c-.455.729-1.054 2.377.605 1.452 1.663-.92 5.145-5.389 5.145-5.389Zm-2.138 19.757c-2.889-2-6.348-3.01-9.858-2.878a6.045 6.045 0 0 0-4.806 2.604c-1.498-2.609-4.453-4.21-9.026-4.174-7.388.082-14.72 3.492-20.522 3.487-5.564 0-9.625-3.497-9.49-9.713C.247 17.877 9.46 8.06 16.331 3.643 20.295 1.11 23.612.35 25.776.593 27.358.77 29.26 2.599 28.06 5.29c-1.762 3.932-4.195 3.612-4.107 1.731.051-1.224.868-1.994 1.477-2.423a3.007 3.007 0 0 1 1.437-.351c.351-.295.604-2.45-2.217-1.741-2.82.707-6.252 3.492-9.506 7.083-3.255 3.596-8.319 10.39-9.57 17.526-.583 3.306-.2 9.34 7.648 9.274 6.649-.052 16.455-4.439 25.466-4.346a17.248 17.248 0 0 1 8.912 2.44c2.33 1.436 5.126 3.533 6.118 4.964"/></symbol><symbol id="icon-galaxie" viewBox="0 0 64 64"><g clip-path="url(#a)"><path d="m14.525 21.875.7 2.85-1.95 2.2 2.925.2 1.488 2.538 1.125-2.726 2.85-.637-2.238-1.887.262-2.925-2.487 1.55-2.675-1.163ZM46.45 10.409l.95 1.902-.987 1.877 2.087-.35 1.45 1.562.362-2.1 1.9-.921-1.887-.968-.275-2.11-1.5 1.494-2.1-.386Zm-7.425 6.016-.862 2.35-2.363.638 1.963 1.512-.05.988a108.618 108.618 0 0 0-8.55 3.7l-.038.012c-3.669 1.782-7.203 3.743-10.397 5.77-3.194 2.029-5.985 4.082-8.21 6.043l-1.536-.9-.232-2.975-2.24 1.987-2.912-.688 1.218 2.75-1.576 2.55 2.987-.312.882 1.038c-1.953 2.38-2.641 4.348-1.993 5.7.936 1.963 4.623 2.501 10.284 1.5l-.525 1.412-2.686.725 2.211 1.688-.15 2.787 2.3-1.563 2.613 1-.8-2.675 1.762-2.175-2.788-.087-.875-1.338c2.727-.547 5.789-1.411 9.038-2.55l.863 2.326 1.825-2.863 3.4-.1L30.55 43.4a111.237 111.237 0 0 0 5.937-2.688c5.605-2.717 10.852-5.833 15.05-8.937l1.063 2.25-1.738 2.938 3.388-.438 2.237 2.563.663-3.338 3.125-1.35-3-1.65-.3-3.387-2.5 2.325L52.3 31.2c3.12-2.38 5.487-4.657 6.913-6.647 1.425-1.99 1.87-3.64 1.3-4.816-.697-1.431-2.872-2.11-6.274-1.954-3.402.154-7.89 1.136-12.939 2.83l-.025-.113 1.55-1.925-2.475-.063-1.325-2.087ZM29.6 26.762c.03-.02.058-.041.087-.062a81.092 81.092 0 0 1 7.95-3.337v.024l.075-.05c.991-.36 1.965-.69 2.913-.987l1.362.525-.262-.837c3.198-.902 5.962-1.357 8.044-1.324 2.083.032 3.416.552 3.881 1.511.47.962.047 2.338-1.228 4.002-1.275 1.663-3.362 3.562-6.072 5.523l-.25-1.363 1.25-1.287-1.8-.2-.813-1.612-.762 1.637-1.8.3 1.338 1.225-.263 1.775 1.563-.85 1.237.6c-3.082 2.196-6.81 4.374-10.762 6.288a83.813 83.813 0 0 1-5.45 2.4l.537-1.875L27.212 40 24.4 38.112l.2 3.375-2.125 1.663c-3.007.797-5.589 1.175-7.528 1.103-1.94-.072-3.181-.591-3.62-1.516-.73-1.529.782-4.067 4.206-7.06 3.423-2.993 8.48-6.197 14.067-8.915Z"/></g><defs><clipPath id="a"><path d="M0 0h64v64H0z"/></clipPath></defs></symbol><symbol id="icon-instagram" viewBox="0 0 14 14"><path fill-rule="evenodd" clip-rule="evenodd" d="M7 .6C5.263.6 5.045.608 4.363.64 3.68.67 3.215.778 2.808.936c-.42.164-.778.382-1.133.738a3.142 3.142 0 0 0-.74 1.134C.778 3.215.67 3.68.64 4.36.608 5.044.6 5.262.6 7.001c0 1.737.008 1.955.039 2.637.031.682.139 1.147.297 1.554.164.42.382.778.738 1.134.356.356.713.575 1.133.738.408.159.873.266 1.554.298.683.03.9.038 2.639.038 1.738 0 1.956-.007 2.638-.038.682-.032 1.147-.14 1.554-.298a3.13 3.13 0 0 0 1.133-.738c.356-.356.575-.713.739-1.134.157-.407.265-.872.297-1.553.031-.683.039-.9.039-2.639 0-1.738-.008-1.956-.039-2.639-.032-.681-.14-1.146-.297-1.553a3.141 3.141 0 0 0-.739-1.134 3.128 3.128 0 0 0-1.133-.738C10.784.778 10.319.67 9.637.64 8.955.608 8.737.6 7 .6Zm-.574 1.153h.575c1.708 0 1.91.007 2.586.037.624.029.962.133 1.188.22.299.117.512.255.736.48.224.223.362.437.478.735.088.226.192.564.22 1.188.032.675.038.878.038 2.586 0 1.708-.006 1.91-.037 2.585-.029.624-.133.963-.22 1.188a1.98 1.98 0 0 1-.48.735 1.98 1.98 0 0 1-.735.479c-.225.088-.564.192-1.188.22-.675.031-.878.038-2.586.038-1.71 0-1.912-.007-2.587-.037-.624-.03-.962-.134-1.188-.221a1.982 1.982 0 0 1-.736-.479 1.984 1.984 0 0 1-.479-.736c-.088-.225-.192-.564-.22-1.187-.031-.675-.037-.878-.037-2.587s.006-1.91.037-2.585c.028-.624.132-.963.22-1.189.116-.298.255-.512.479-.736.224-.224.437-.362.736-.479.226-.088.564-.192 1.188-.22.59-.027.82-.035 2.012-.036v.001Zm3.99 1.063a.768.768 0 1 0 0 1.536.768.768 0 0 0 0-1.536Zm-3.415.897a3.287 3.287 0 1 0 0 6.574 3.287 3.287 0 0 0 0-6.574Zm0 1.154a2.133 2.133 0 1 1 0 4.267 2.133 2.133 0 0 1 0-4.267Z"/></symbol><symbol id="icon-menu" viewBox="0 0 28 25"><path d="M1 4.5h26a1 1 0 0 0 1-1V1a1 1 0 0 0-1-1H1a1 1 0 0 0-1 1v2.5a1 1 0 0 0 1 1Zm0 10h26a1 1 0 0 0 1-1V11a1 1 0 0 0-1-1H1a1 1 0 0 0-1 1v2.5a1 1 0 0 0 1 1Zm0 10h26a1 1 0 0 0 1-1V21a1 1 0 0 0-1-1H1a1 1 0 0 0-1 1v2.5a1 1 0 0 0 1 1Z"/></symbol><symbol id="icon-planet" viewBox="0 0 64 64"><g clip-path="url(#a)"><path d="M24.27 17.56c-7.17 3.675-10.16 11.41-8.675 18.595.345 1.66.925 3.285 1.745 4.83 4.085 7.66 14.665 10.215 22.915 5.69 7.155-3.925 11.31-13.355 7.225-21.67a17.513 17.513 0 0 0-2.85-4.15c-4.59-4.975-12.185-7.48-20.36-3.295Z"/><path d="M44.625 20.855C40.04 15.88 32.44 13.375 24.27 17.56c-7.17 3.675-10.16 11.41-8.675 18.595 0 0 4.445.16 16.265-6.7s12.765-8.6 12.765-8.6Z"/><path d="M19.295 21.44s5.44-.33 6.725-.93c.905-.425 4.52-4.935 4.52-4.935s-3.08.22-6.325 1.94c-3.195 1.69-4.92 3.925-4.92 3.925ZM15.595 36.155s4.545-.4 15.145-6.175c10.6-5.775 13.445-9.585 13.445-9.585s1.685 1.645 2.76 3.595a21.76 21.76 0 0 1 1.635 3.79l-9.87 6.77s-.56-1.98.735-3.665c1.295-1.68 3.49-2.93 3.19-3.79-.3-.86-2.715 0-4.74 1.68-2.025 1.68-4.005 3.575-4.74 3.06-.735-.515 1.42-2.07.515-2.285-.905-.215-2.585.82-4.955 2.845-2.37 2.025-3.79 3.79-7.37 4.61-3.12.715-5.575-.075-5.575-.075l-.175-.775Z"/><path d="M17.08 40.495s2.515.445 5.46-.645c4.525-1.675 5.765-3.78 7.745-4.835 1.005-.535 2.295-.62 2.105 1.24-.2 2.015-4.215 4.585-4.215 4.585l-8.69 3.19s-.735-.82-1.335-1.635c-.47-.65-1.07-1.9-1.07-1.9ZM22.745 46.58s6.185-1.065 14.72-6.125c8.535-5.06 11.615-8.49 11.615-8.49s-.005.855-.045 1.305c-.04.45-.14 1.05-.14 1.05S44.81 38.825 38.3 42.57c-7.555 4.35-12.925 5.25-12.925 5.25s-.765-.285-1.335-.55c-.49-.22-1.295-.69-1.295-.69ZM16.18 26.815s-.24.7-.39 1.295a30.38 30.38 0 0 0-.305 1.405s3.8-.445 12.59-5.02c8.79-4.575 10.745-7.775 10.745-7.775s-.685-.29-1.385-.525c-.555-.185-1.3-.355-1.3-.355s-3.9 3.675-9.21 6.355c-6.655 3.35-10.745 4.62-10.745 4.62Z"/><path d="m15.34 30.41-.06.63c-.035.365-.045.76-.045.76s4.795-.39 13.625-5.285c8.83-4.895 12.11-8.68 12.11-8.68s-.385-.245-.74-.43c-.42-.225-.7-.355-.7-.355s-3.205 4.105-11.38 8.275C18.975 30 15.34 30.41 15.34 30.41ZM43.595 19.815S60.22 12.635 63 16.35c2.78 3.72-12.82 14.41-28.755 22.98C18.31 47.9 2.96 53.41 1.1 49.495c-1.86-3.915 14.31-14.33 14.31-14.33s.045.26.105.575c.055.295.155.79.155.79l-7.18 6.045-.905 4.1 8.885-1.66s10.09-3.57 16.645-6.98C39.67 34.625 53.43 24.78 53.43 24.78l3.945-6.59-12.925 2.47s-.18-.185-.405-.41c-.24-.24-.45-.435-.45-.435Z"/><path d="M15.545 35.895S2.435 43.65 4.11 47.785c1.52 3.75 18.11-2.35 31.905-10.22C48.69 30.33 62.335 21.55 59.99 17.64c-2.065-3.445-15.945 2.615-15.945 2.615s.15.14.315.315c.12.13.255.265.255.265s10.34-2.595 11.105-1.065c.765 1.53-9.605 11.28-20.525 16.945C24.275 42.38 9.51 48.53 8.655 46.05c-1.23-3.565 7.06-9.35 7.06-9.35s-.08-.345-.1-.455c-.035-.15-.07-.35-.07-.35Z"/><path d="M44.545 20.77s12.12-4.67 13.79-2.23-7.915 10.49-23.25 18.64S7.015 49.83 5.6 46.885c-1.415-2.945 10.015-10.64 10.015-10.64s.05.225.105.46c.055.24.205.785.205.785s-7.04 5.33-5.93 6.585c1.11 1.255 9.23.095 24.005-7.43 14.925-7.605 20.65-14.22 19.1-15.715-1.01-.97-7.76.75-7.76.75s-.235-.28-.395-.465c-.155-.19-.4-.445-.4-.445Z"/><path d="M45.16 21.465s8.185-3.305 9.49-.725c1.515 3-11.16 11.305-20.76 16.535-9.35 5.09-23.39 10.05-24.84 7.49-1.195-2.115 6.75-7.705 6.75-7.705s.065.255.15.55c.045.155.14.455.14.455s-5.325 3.795-4.335 5.275c.99 1.48 11.12-1.19 21.635-6.68 12.66-6.605 20.095-13.21 19.025-14.96-1.07-1.745-6.695.455-6.695.455l-.25-.32c-.125-.155-.31-.37-.31-.37Z"/></g><defs><radialGradient id="b" cx="0" cy="0" r="1" gradientUnits="userSpaceOnUse" gradientTransform="rotate(66.552 -8.849 40.436) scale(16.9126 57.2362)"><stop offset=".119" stop-color="#E8D59A"/><stop offset=".297" stop-color="#E9D297"/><stop offset=".446" stop-color="#EAC78C"/><stop offset=".584" stop-color="#EDB67B"/><stop offset=".621" stop-color="#EEB075"/><stop offset=".903" stop-color="#F5A97F"/></radialGradient><radialGradient id="c" cx="0" cy="0" r="1" gradientUnits="userSpaceOnUse" gradientTransform="matrix(14.0168 27.77866 -78.15802 39.43766 24.947 19.507)"><stop offset=".219" stop-color="#E3DDA6"/><stop offset=".278" stop-color="#E4D9A0"/><stop offset=".354" stop-color="#E8CD90"/><stop offset=".384" stop-color="#EAC788"/></radialGradient><radialGradient id="d" cx="0" cy="0" r="1" gradientUnits="userSpaceOnUse" gradientTransform="translate(30.33 34.263) scale(13.302)"><stop offset=".422" stop-color="#F6DFB4"/><stop offset=".984" stop-color="#F9D4A4"/></radialGradient><radialGradient id="e" cx="0" cy="0" r="1" gradientUnits="userSpaceOnUse" gradientTransform="translate(40.643 33.37) scale(18.9095)"><stop stop-color="#F6DFB4"/><stop offset=".869" stop-color="#F9D4A4"/></radialGradient><clipPath id="a"><path d="M0 0h64v64H0z"/></clipPath></defs></symbol><symbol id="icon-satellite" viewBox="0 0 64 64"><g clip-path="url(#a)"><path d="M24.4 24.4c3.2-3.2 3.2-8.4 0-11.6L12.8 24.4c3.2 3.2 8.4 3.2 11.6 0Z"/><path d="M27 27c-4.3 4.3-4.3 4.3-6 2.6-1.7-1.7-1.7-1.7 2.6-6s4.3-4.3 6-2.6c1.7 1.7 1.7 1.7-2.6 6Z"/><path d="M37.2 37.2c-4.3 4.3-4.3 4.3-6 2.6l-6.9-6.9c-1.7-1.7-1.7-1.7 2.6-6s4.3-4.3 6-2.6l6.9 6.9c1.7 1.7 1.7 1.7-2.6 6Z"/><path d="M39.6 39.6c-3.2 3.2-3.2 3.2-4.5 1.9-1.3-1.3-1.3-1.3 1.9-4.5s3.2-3.2 4.5-1.9c1.3 1.2 1.3 1.2-1.9 4.5ZM22.2 15l-7.1-1.3c0-.3-.1-.5-.3-.7-.4-.4-1.2-.4-1.6 0-.4.4-.4 1.2 0 1.6.2.2.4.3.6.3l1.4 7.2.8-.8h-.2l-1.2-6.5c.1-.1.2-.1.3-.2.1-.1.1-.1.1-.2l6.5 1.2v.2l.7-.8ZM25.756 37.336l1.485-1.484.919.92-1.485 1.484-.919-.92Zm10.11-10.096 1.485-1.484.919.919-1.485 1.485-.919-.92Z"/><path d="M31.1 42.6c.2.2.2.5 0 .7L12.5 61.9c-.2.2-.5.2-.7 0l-9.7-9.7c-.1-.2-.1-.5 0-.7l18.6-18.6c.2-.2.5-.2.7 0l9.7 9.7Z"/><path d="M31.1 42.6c.2.2.2.5 0 .7L12.5 61.9c-.2.2-.5.2-.7 0l-9.7-9.7c-.1-.2-.1-.5 0-.7l18.6-18.6c.2-.2.5-.2.7 0l9.7 9.7Zm30.8-30.7c.2.2.2.5 0 .7L43.3 31.1c-.2.2-.5.2-.7 0l-9.7-9.7c-.2-.2-.2-.5 0-.7L51.5 2.1c.2-.1.5-.1.6 0l9.8 9.8Z"/><path d="m3.3 51.8.7.7h16.4l5.1-5.1H7.7l-4.4 4.4Zm25.9-9.5H12.8l-2.5 2.6H28l1.9-1.9-.7-.7ZM34.1 21l.7.7h16.4l5.1-5.1H38.5L34.1 21ZM60 11.5H43.6l-2.5 2.6h17.7l1.9-1.9-.7-.7Z"/></g><defs><clipPath id="a"><path d="M0 0h64v64H0z"/></clipPath></defs></symbol><symbol id="icon-sony" viewBox="0 0 124 22"><path d="M44.175.088c4.759 0 8.566 1.188 11.475 3.834a9.37 9.37 0 0 1 3.07 7.063 9.859 9.859 0 0 1-3.07 7.093c-2.723 2.501-6.965 3.834-11.47 3.834-4.51 0-8.68-1.333-11.444-3.834a9.341 9.341 0 0 1-3.115-7.093 9.576 9.576 0 0 1 3.115-7.063C35.319 1.576 39.886.088 44.175.088Zm.016 18.962c2.381 0 4.587-.832 6.137-2.367 1.55-1.55 2.238-3.41 2.238-5.698 0-2.191-.765-4.242-2.238-5.7-1.519-1.498-3.787-2.35-6.138-2.35-2.35 0-4.613.847-6.148 2.35-1.472 1.458-2.242 3.509-2.242 5.7a8.06 8.06 0 0 0 2.242 5.698c1.535 1.52 3.787 2.367 6.148 2.367ZM19.178 8.882a14.74 14.74 0 0 1 2.407.842 7 7 0 0 1 1.959 1.333 5.667 5.667 0 0 1 1.58 3.957 4.98 4.98 0 0 1-1.958 4.03 10.674 10.674 0 0 1-3.663 1.799 19.234 19.234 0 0 1-6.169.878c-1.819 0-2.82-.212-4.2-.501l-.398-.083a24.387 24.387 0 0 1-4.433-1.436.362.362 0 0 0-.217-.062.434.434 0 0 0-.424.434v1.049H.625v-7.637h2.708c.016.774.263 1.526.707 2.16 1.096 1.343 2.274 1.86 3.395 2.273 1.896.62 3.885.95 5.87 1.013 2.856 0 4.525-.693 4.887-.842l.046-.021.031-.01c.32-.12 1.612-.59 1.612-2.026 0-1.415-1.209-1.725-2-1.927l-.113-.026c-.878-.237-2.904-.454-5.115-.687l-.785-.082a71.539 71.539 0 0 1-6.185-.905c-2.573-.568-3.585-1.508-4.216-2.092l-.041-.042A5.27 5.27 0 0 1 0 6.655c0-2.563 1.757-4.113 3.911-5.063C6.216.558 8.954.098 11.351.098c4.237.016 7.683 1.395 8.923 2.036.501.269.75-.062.75-.31v-.77h2.722V7.71h-2.439a4.68 4.68 0 0 0-1.519-2.537 6.658 6.658 0 0 0-1.534-.925 16.089 16.089 0 0 0-6.464-1.266c-2.288 0-4.48.44-5.58 1.111-.682.424-1.033.956-1.033 1.581 0 .894.754 1.25 1.137 1.359 1.012.31 3.265.532 5.017.708l1.053.108c1.69.17 5.23.641 6.795 1.034Zm93.863-5.151V1.256H124v2.428h-2.459c-.889 0-1.251.17-1.922.925l-7.373 8.421a.504.504 0 0 0-.098.362v3.834c.012.178.033.356.062.532a.771.771 0 0 0 .516.465c.223.033.447.05.672.052h2.511v2.428H102.61v-2.428h2.377c.225-.002.449-.02.671-.052a.837.837 0 0 0 .538-.465c.031-.17.046-.343.046-.517v-3.833c0-.13 0-.13-.17-.331a3157.134 3157.134 0 0 0-7.296-8.282c-.392-.408-1.064-1.064-2.097-1.064h-2.367V1.302h13.372v2.429h-1.612c-.362 0-.61.361-.3.754l4.542 5.43c.046.062.077.062.139.016.062-.047 4.619-5.4 4.65-5.446a.47.47 0 0 0-.093-.661.568.568 0 0 0-.31-.093h-1.658Zm-32.468-.016h2.506c1.142 0 1.343.44 1.359 1.504l.145 8.09-13.34-12.007H61.71v2.429h2.128c1.535 0 1.643.847 1.643 1.601v11.434c0 .661.005 1.524-.94 1.524h-2.614v2.413h11.18v-2.428H70.38c-1.095 0-1.136-.502-1.157-1.566V6.986l15.36 13.696h3.912l-.207-15.479c.02-1.126.098-1.503 1.255-1.503h2.444V1.27H80.574v2.444Z"/></symbol><symbol id="icon-telescope" viewBox="0 0 64 64"><g clip-path="url(#a)"><path d="M54.555 19.82c.08.455.505 1.76.265 2.405l-1.49 3.915c-.39 1.005.21 2.17 1.33 2.605 1.125.435 2.345-.03 2.735-1.04l1.545-3.935c.245-.62 1.24-1.35 1.645-1.665a.518.518 0 0 0-.14-.9c-1.51-.55-3.36-1.3-5.21-1.96a.517.517 0 0 0-.68.575Z"/><path d="m57.395 27.705 1.42-3.605s-1.54 1.01-4.55-.415l-.93 2.455c-.39 1.005.21 2.17 1.33 2.605 1.12.43 2.345-.035 2.73-1.04Z"/><path d="M59.545 26.89a.399.399 0 0 0-.155-.66l-7.205-2.455c-.735-.29-1.295-.885-1.59-1.615-.865-2.115-2.885-3.485-3.665-3.785l-1.745.995-3.305 7.77L43 29.06c.775.3 3.135.68 5.115-.285.725-.355 1.555-.435 2.31-.15l4.95 1.57c.405.13.85.02 1.15-.28l3.02-3.025Z"/><path d="M46.985 18.395 16.44 6.05c-.45 1.165-4.41 10.675-4.49 11.65l30.94 11.32c1.18.455 3.05-1.56 4.18-4.495 1.13-2.93 1.095-5.675-.085-6.13Z"/><path d="M13.545 18.29 42.89 29.025c.585.225 1.355-.18 2.11-.985l-7.38-3s2.505-2.74.545-6.15l-4.225 4.7-19.375-7.82c-.125.32-.52 1.28-1.02 2.52ZM10.324 10.384c1.516-3.934 1.39-7.646-.282-8.29C8.37 1.448 5.785 4.115 4.268 8.05c-1.517 3.935-1.39 7.647.282 8.291 1.672.645 4.257-2.022 5.774-5.957Z"/><path d="M21.41 6.825c-1.6-.615-4.075 1.935-5.53 5.705-1.45 3.77-1.33 7.32.27 7.94 1.6.615 4.075-1.935 5.53-5.705 1.45-3.77 1.33-7.325-.27-7.94Z"/><path d="m21.41 6.825-11.37-4.73L4.55 16.34l11.6 4.125 5.26-13.64Z"/><path d="M9.109 9.929c1.242-3.223 1.257-6.219.033-6.69C7.92 2.765 5.92 4.996 4.677 8.22c-1.243 3.224-1.258 6.22-.034 6.691 1.224.472 3.223-1.759 4.466-4.982Z"/><path d="M6.215 8.815c.89-2.31 2.455-3.97 4.065-4.195.235-.035-.12 3.32-1.22 6.005-.95 2.325-2.64 4.05-2.78 3.85-.915-1.28-.915-3.455-.065-5.66ZM8.74 15.4l7.96 2.985c1.43.535 2.505.625 3.265-.35.885-1.135 1.1-1.695 1.39-2.445.45-1.16-.745-2-1.205-2.18l-8.62-3.56a1.088 1.088 0 0 0-1.365.47l-1.99 3.515c-.33.59-.065 1.33.565 1.565Z"/><path d="M10.04 2.095C8.365 1.45 5.785 4.12 4.265 8.05c-1.515 3.935-1.39 7.645.285 8.29 1.67.645 4.255-2.02 5.77-5.955 1.515-3.935 1.39-7.645-.28-8.29ZM4.85 14.38c-1.015-.39-.92-3.09.21-6.025 1.13-2.935 2.87-5 3.89-4.605 1.02.395.92 3.09-.21 6.025-1.135 2.935-2.875 5-3.89 4.605ZM28.01 27.58c0 1.875 1 3.39 2.23 3.39s2.23-1.52 2.23-3.39c0-1.19-.405-2.235-1.01-2.84l-2.46.025c-.6.605-.99 1.64-.99 2.815Z"/><path d="M32.545 29.605c-.6 0-1.775 1.065-1.775 1.98l.32 13.905.435 2.035.12 12.725c0 .845.695 1.555.725 1.585l.165.17.175-.16c.03-.03.795-.735.795-1.59V47.39l.485-2.075.32-14.175c0-.905-1.145-1.535-1.765-1.535Z"/><path d="M32.05 27.37c-.52.3-1.005 1.81-.55 2.605l7.725 12.735 1.395 1.545 6.465 10.96c.425.735 1.375 1 1.42 1.01l.23.06.07-.225c.015-.04.32-1.035-.11-1.775l-6.43-11.14-.615-2.04-7.31-13.29c-.45-.78-1.755-.755-2.29-.445Z"/><path d="M32.94 27.37c.52.3 1.005 1.81.55 2.605L25.76 42.71l-1.395 1.545L17.9 55.21c-.425.735-1.375 1-1.42 1.01l-.23.06-.07-.225c-.015-.04-.32-1.035.11-1.775l6.43-11.135.615-2.04 7.31-13.295c.45-.775 1.755-.75 2.295-.44Z"/><path d="M29.795 30.97s4.895.625 5.745.305c1.085-.415 1.935-1.885 1.86-3.545-.075-1.66-1.54-2.99-1.64-2.87.955-.415 1.87-1.24 2.52-3.51.255-.895.32-1.69.095-2.265-.32-.83-.975-1.225-1.55-1.045-.585.18-.84.99-1.005 1.5-.335 1.035-.725 2.075-1.37 2.95-.645.875-2.14 1.8-3.98 1.97l-.675 6.51Z"/><path d="m29.21 30.545 1.625.32v3.495l-.825 1.35s.12-1.915.01-2.89c-.175-1.495-.81-2.275-.81-2.275Zm5.38 4.52s.335-1.145 1.68-1.145 2.055 1.145 2.055 1.145l-2.25-4.09s-.7.675-1.78.74l-.06 2.765.355.585ZM33.935 31.18c1.58 0 2.86-1.404 2.86-3.135 0-1.731-1.28-3.135-2.86-3.135-1.58 0-2.86 1.404-2.86 3.135 0 1.731 1.28 3.135 2.86 3.135Z"/><path d="M34.16 29.44c.701 0 1.27-.625 1.27-1.395s-.569-1.395-1.27-1.395c-.701 0-1.27.625-1.27 1.395s.569 1.395 1.27 1.395Zm-6.025-5.795 2.34.81s2.83-.39 3.98-1.97c1.15-1.585 1.565-3.785 1.755-4.04.19-.255.64-.51 1.02-.415l.385.095s-.765-.03-.955.765c-.19.8-.955 3.16-1.915 4.15-.955.99-2.555 1.53-3.065 1.785-.51.255-1.085 2.3-1.82 2.65-.735.35-1.755-.095-1.725-.895.03-.8.67-1.63.67-1.63l-.67-1.305Z"/><path d="m25.425 12.165 9.05 3.48" stroke-width="3" stroke-miterlimit="10" stroke-linecap="round" stroke-linejoin="round"/></g><defs><linearGradient id="b" x1="11.148" y1="12.394" x2="7.09" y2="8.362" gradientUnits="userSpaceOnUse"><stop stop-color="#1565C0"/><stop offset=".131" stop-color="#2574C5"/><stop offset=".723" stop-color="#69B5D8"/><stop offset="1" stop-color="#84CFE0"/></linearGradient><clipPath id="a"><path d="M0 0h64v64H0z"/></clipPath></defs></symbol><symbol id="icon-tiktok" viewBox="0 0 124 36"><g clip-path="url(#a)"><path d="M23.697 12.925a14.28 14.28 0 0 0 8.277 2.623V9.665c-.584 0-1.166-.06-1.738-.18v4.631a14.28 14.28 0 0 1-8.278-2.624v12.006c0 6.006-4.915 10.875-10.979 10.875a11 11 0 0 1-6.112-1.84 10.997 10.997 0 0 0 7.85 3.272c6.064 0 10.98-4.868 10.98-10.874V12.924ZM25.84 6.99a8.163 8.163 0 0 1-2.144-4.801v-.757h-1.648A8.235 8.235 0 0 0 25.84 6.99ZM8.703 27.924a4.923 4.923 0 0 1-1.025-3.011c0-2.747 2.248-4.974 5.022-4.974a5.08 5.08 0 0 1 1.524.233v-6.014a11.194 11.194 0 0 0-1.738-.1v4.682a5.074 5.074 0 0 0-1.524-.233c-2.774 0-5.022 2.227-5.022 4.974a4.97 4.97 0 0 0 2.763 4.443Z"/><path d="M21.958 11.492a14.282 14.282 0 0 0 8.278 2.624V9.485a8.327 8.327 0 0 1-4.395-2.495 8.236 8.236 0 0 1-3.792-5.558h-4.327V24.93c-.01 2.74-2.254 4.957-5.022 4.957-1.631 0-3.08-.77-3.998-1.963a4.97 4.97 0 0 1-2.763-4.443c0-2.747 2.249-4.974 5.023-4.974a5.08 5.08 0 0 1 1.524.233v-4.681C6.529 14.18 1.738 19 1.738 24.93a10.78 10.78 0 0 0 3.13 7.603 11.002 11.002 0 0 0 6.112 1.84c6.063 0 10.978-4.87 10.978-10.875V11.492Z"/><path d="M30.236 9.485V8.233a8.335 8.335 0 0 1-4.395-1.244 8.32 8.32 0 0 0 4.395 2.496Zm-8.187-8.053a7.648 7.648 0 0 1-.09-.675V0h-5.975v23.498c-.01 2.739-2.254 4.957-5.022 4.957a5.04 5.04 0 0 1-2.26-.53 5.032 5.032 0 0 0 3.998 1.962c2.768 0 5.013-2.217 5.022-4.957V1.432h4.327ZM12.486 14.06v-1.333c-.5-.068-1.003-.102-1.506-.102C4.916 12.624 0 17.493 0 23.498c0 3.765 1.932 7.083 4.868 9.035a10.784 10.784 0 0 1-3.13-7.603c0-5.929 4.79-10.75 10.748-10.871ZM99.464 29.45c4.338 0 7.856-3.458 7.856-7.723 0-4.264-3.518-7.722-7.856-7.722H98.28c4.338 0 7.856 3.458 7.856 7.722 0 4.265-3.518 7.722-7.856 7.722h1.183ZM98.173 14.005h-1.184c-4.338 0-7.856 3.458-7.856 7.722 0 4.265 3.518 7.722 7.856 7.722h1.184c-4.34 0-7.857-3.457-7.857-7.722 0-4.264 3.518-7.722 7.857-7.722Z"/><path d="M64.597 10.515v8.779l4.52-4.443h5.487l-5.703 5.501 6.35 9.097h-4.843l-4.411-6.242-1.4 1.27v4.866h-4.52V10.515h4.52Zm48.749 0v8.779l4.52-4.443h5.488l-5.704 5.501 6.35 9.097h-4.843l-4.412-6.241-1.399 1.27v4.866h-4.521V10.515h4.521Zm-15.067 3.49c4.339 0 7.857 3.458 7.857 7.722 0 4.265-3.518 7.722-7.856 7.722h-.108c-4.338 0-7.856-3.457-7.856-7.722 0-4.264 3.518-7.722 7.856-7.722h.108Zm-45.518-3.49-1.292 4.02h-3.766v14.809h-4.629V14.429h-4.626v-3.914H52.76Zm37.879 0-1.291 4.02h-3.766v14.809h-4.629V14.429h-4.626v-3.914H90.64Zm-32.5 6.03v12.799h-4.518v-12.8h4.518Zm40.087 1.428c-2.11 0-3.821 1.68-3.821 3.754 0 2.075 1.711 3.756 3.82 3.756 2.11 0 3.821-1.681 3.821-3.756 0-2.074-1.711-3.754-3.82-3.754ZM55.88 10.515c1.249 0 2.26.995 2.26 2.221 0 1.227-1.01 2.221-2.26 2.221-1.248 0-2.258-.994-2.258-2.22 0-1.227 1.01-2.222 2.258-2.222Z"/></g><defs><clipPath id="a"><path d="M0 0h124v36H0z"/></clipPath></defs></symbol><symbol id="icon-twitter" viewBox="0 0 12 10"><path fill-rule="evenodd" clip-rule="evenodd" d="m5.64 2.754.026.415-.42-.05c-1.528-.196-2.862-.857-3.995-1.967L.697.602l-.143.406c-.302.907-.11 1.864.52 2.508.336.356.26.407-.319.195-.201-.068-.377-.118-.394-.093-.059.06.143.83.302 1.136.218.423.663.839 1.15 1.084l.411.195-.486.009c-.47 0-.487.008-.437.186.168.55.831 1.136 1.57 1.39l.52.178-.453.27c-.672.39-1.46.611-2.25.628-.377.008-.688.042-.688.068 0 .085 1.024.56 1.62.745 1.788.551 3.911.314 5.506-.627 1.133-.669 2.267-2 2.795-3.288.286-.686.571-1.94.571-2.542 0-.39.025-.44.495-.906.277-.272.538-.568.588-.653.084-.16.075-.16-.353-.017-.713.254-.814.22-.461-.16.26-.272.57-.764.57-.908 0-.025-.125.017-.268.094a4.685 4.685 0 0 1-.739.288l-.453.144-.411-.28C9.233.5 8.914.33 8.746.28 8.318.161 7.663.178 7.277.313c-1.049.382-1.712 1.365-1.636 2.44Z"/></symbol><symbol id="icon-unreal" viewBox="0 0 92 75"><path fill-rule="evenodd" clip-rule="evenodd" d="M28.917 74.763h-7.19V68.22h7.075v1.449h-5.15v1.113h4.875v1.367h-4.873v1.127h5.263v1.49-.003Zm41.356 0H63.2v-6.44h6.965v1.42h-5.07v1.094h4.798v1.344h-4.798v1.11h5.18v1.472Zm-31.61 0h-2.908l-3.83-4.895h-.036v4.895h-1.904V68.22h2.954l3.782 4.898h.037V68.22h1.907v6.542h-.002Zm23.048 0h-2.908l-3.83-4.895h-.036v4.895h-1.912V68.22h2.954l3.784 4.898h.035V68.22h1.913v6.542Zm-17.428.09a23.53 23.53 0 0 1-1.574-.045 6.159 6.159 0 0 1-1.133-.166 2.15 2.15 0 0 1-.752-.352 1.495 1.495 0 0 1-.455-.582 2.973 2.973 0 0 1-.225-.87c-.04-.401-.058-.805-.056-1.209v-.193c-.002-.407.018-.813.06-1.218.03-.298.103-.594.22-.872.101-.228.258-.427.456-.582a2.13 2.13 0 0 1 .755-.343c.37-.09.747-.146 1.127-.167a26.794 26.794 0 0 1 1.573-.04h.287c.508 0 .953.011 1.334.031.33.018.658.056.983.12.239.045.466.124.682.235.17.09.319.22.428.38.109.167.182.355.215.55.044.25.065.501.062.753v.249h-1.862v-.08a.863.863 0 0 0-.068-.374.53.53 0 0 0-.275-.243 2.002 2.002 0 0 0-.572-.125c-.324-.027-.65-.04-.975-.039h-.161c-.367 0-.677.006-.937.02a3.4 3.4 0 0 0-.646.08 1.108 1.108 0 0 0-.408.181.673.673 0 0 0-.223.317 1.79 1.79 0 0 0-.095.497 9.327 9.327 0 0 0-.023.708v.117c0 .27.008.5.023.694.01.167.038.331.095.489.041.123.12.231.224.313.121.088.263.15.407.18a3.8 3.8 0 0 0 .646.082c.26.01.57.019.937.017h.162c.298 0 .555 0 .77-.015a7.07 7.07 0 0 0 .543-.053c.121-.015.239-.05.352-.097a.539.539 0 0 0 .206-.157.571.571 0 0 0 .094-.223c.015-.1.024-.202.024-.301v-.182h-2.532v-1.265h4.367v1.455c.004.276-.014.554-.058.826a1.762 1.762 0 0 1-.224.614c-.11.173-.254.32-.431.427a2.287 2.287 0 0 1-.69.27c-.33.076-.665.124-1.002.143-.39.027-.841.041-1.36.041l-.296.004Zm7.34-.075h-1.934v-6.496h1.933v6.496Zm-44.72-9.983c-.935 0-1.752-.026-2.458-.076a11.303 11.303 0 0 1-1.824-.255 4.394 4.394 0 0 1-1.27-.486 2.52 2.52 0 0 1-.802-.772 3.128 3.128 0 0 1-.422-1.104 7.954 7.954 0 0 1-.124-1.496v-7.38h3.394v6.288c0 .39.012.723.041 1.004.018.243.074.48.166.708.08.188.204.352.366.478.188.135.404.23.631.284.316.078.641.126.965.14.384.024.839.032 1.37.032h.286a22.4 22.4 0 0 0 1.37-.035c.324-.017.65-.062.965-.135.23-.05.443-.146.632-.283.16-.126.284-.29.363-.478.094-.224.15-.465.171-.708.026-.285.038-.617.038-.995v-6.302h3.395v7.379c.002.5-.036.998-.116 1.493a3.047 3.047 0 0 1-.41 1.107 2.432 2.432 0 0 1-.794.772 4.378 4.378 0 0 1-1.266.49c-.602.134-1.216.218-1.833.254-.826.052-1.654.076-2.482.073l-.352.003Zm24.693-.14h-5.074l-6.676-8.56h-.065v8.56h-3.325V53.208h5.15l6.597 8.565h.065V53.21h3.326v11.44l.002.005Zm9.996-5.668c.587 0 1.05-.017 1.4-.052.276-.017.546-.093.79-.223a.768.768 0 0 0 .351-.468c.062-.26.09-.527.084-.794v-.196a3.055 3.055 0 0 0-.084-.784.741.741 0 0 0-.356-.46 1.966 1.966 0 0 0-.794-.214 14.35 14.35 0 0 0-1.39-.052h-4.227v3.243h4.226Zm6.039 5.668h-3.35v-.929a7.658 7.658 0 0 0-.041-.863 1.71 1.71 0 0 0-.172-.612 1.053 1.053 0 0 0-.368-.401 1.78 1.78 0 0 0-.626-.234 6.213 6.213 0 0 0-.96-.111 26.02 26.02 0 0 0-1.357-.03h-3.391v3.18h-3.358V53.209h8.946c.777-.014 1.553.044 2.32.173a3.314 3.314 0 0 1 1.431.58c.352.272.605.65.726 1.074a5.77 5.77 0 0 1 .198 1.654v.404a5.87 5.87 0 0 1-.103 1.18 2.59 2.59 0 0 1-.345.868 2.034 2.034 0 0 1-.615.604 2.964 2.964 0 0 1-.926.36v.067c.34.05.672.132.994.252.245.088.455.243.612.45.161.235.265.504.303.785.06.41.089.823.08 1.238v1.75l.002.007Zm14.74 0H49.837V53.208h12.337v2.529h-8.979v1.947H61.7v2.388h-8.504v1.973h9.177v2.608Zm11.335-4.436-2.352-4.59h-.083l-2.332 4.59h4.767Zm5.936 4.444h-3.657l-1.057-2.055h-7.195l-1.04 2.055h-3.63l6.196-11.44h4.16l6.223 11.44Zm12.357 0H80.89v-11.44h3.392v8.785H92v2.66-.005ZM59.867 26.81c-.402 1.923-2.19 6.862-7.896 9.535l-2.29-2.556-3.863 3.855c-2.2-.03-4.364-.563-6.322-1.558a14.245 14.245 0 0 1-4.965-4.182 5.62 5.62 0 0 0 1.266.234c.631.012 1.317-.217 1.317-1.276V20.467a1.69 1.69 0 0 0-.65-1.4 1.721 1.721 0 0 0-1.523-.313c-1.789.405-3.22 4.834-3.22 4.834a13.99 13.99 0 0 1 1.26-5.934 14.099 14.099 0 0 1 3.657-4.859c2.665-2.24 5.268-3.015 7.246-3.32-1.954 1.104-3.052 2.907-3.052 4.42 0 2.427 1.475 2.14 1.916 1.78v14.039c.073.18.168.343.285.498a2.074 2.074 0 0 0 1.713.854c1.478 0 3.4-1.674 3.4-1.674V18.025c0-1.156-.88-2.555-1.76-3.032 0 0 1.627-.285 2.887.67.237-.287.487-.562.753-.823 2.928-2.854 5.69-3.661 7.992-4.069 0 0-4.188 3.264-4.188 7.638 0 3.252.083 11.188.083 11.188 1.561 1.484 3.869-.659 5.954-2.787Z"/><path fill-rule="evenodd" clip-rule="evenodd" d="M46 .339C33.113.339 22.665 10.7 22.665 23.482c0 12.785 10.451 23.143 23.338 23.143 12.89 0 23.338-10.362 23.335-23.146C69.338 10.7 58.89.336 46 .34Zm0 45.358c-12.373.003-22.402-9.945-22.405-22.216 0-12.27 10.03-22.218 22.405-22.218 12.373-.001 22.4 9.947 22.4 22.217 0 12.271-10.028 22.218-22.401 22.218Z"/></symbol><symbol id="icon-vaisseau" viewBox="0 0 64 64"><g clip-path="url(#a)"><path d="M10.9 48.7c4-4 4.4-5 6.9-2.5s1.5 2.8-2.5 6.9c-3 3-6.8 2.4-6.8 2.4s-.6-3.8 2.4-6.8Z"/><path d="M18.5 52.8c1.6-4.2 2.1-4.7-.2-6-2.3-1.3-2.3-.4-3.8 3.8-1.2 3.1.2 5.9.2 5.9s2.7-.5 3.8-3.7Z"/><path d="M16.2 48.9c.9-2.3.9-2.8 2.1-2.1 1.3.7 1 1 .1 3.3-.6 1.7-2.1 2.1-2.1 2.1s-.7-1.5-.1-3.3Z"/><path d="M17.1 45.7c-1.3-2.3-1.8-1.8-6-.2-3.1 1.2-3.7 3.8-3.7 3.8s2.8 1.4 5.9.2c4.2-1.6 5.1-1.6 3.8-3.8Z"/><path d="M15 47.8c2.3-.9 2.8-.9 2.1-2.1-.7-1.3-1-1-3.3-.1-1.7.6-2.1 2.1-2.1 2.1s1.6.7 3.3.1Z"/><path d="M13.9 47.6c2.2-2.2 2.4-2.8 3.8-1.4s.8 1.6-1.4 3.8c-1.7 1.7-3.8 1.3-3.8 1.3s-.2-2 1.4-3.7ZM18.5 38C12.3 27.6 2 31.9 2 31.9s14.7-14.7 24.6-4.8L18.5 38Z"/><path d="m23.3 30.3 3.2-3.2C16.7 17.2 2 31.9 2 31.9s12.9-9.2 21.3-1.6ZM26 45.5C36.4 51.7 32.1 62 32.1 62s14.7-14.7 4.8-24.6L26 45.5Z"/><path d="m33.7 40.7 3.2-3.2c9.9 9.9-4.8 24.6-4.8 24.6s9.2-13 1.6-21.4Z"/><path d="M48.8 30.9C37.1 42.5 24.2 48.8 19.7 44.3c-4.5-4.5 1.8-17.4 13.4-29.1 13.6-13.6 28.7-13 28.7-13s.5 15.1-13 28.7Z"/><path d="M45.8 27.6C34.2 39.2 22.6 46.8 19.9 44.1c-2.7-2.7 4.9-14.3 16.5-25.9C50 4.6 62 2 62 2s-2.6 12-16.2 25.6Z"/><path d="M24.3 47.5c-.5.5-1.3.5-1.8 0l-6-6c-.5-.5-.5-1.4 0-1.9l1.8-1.8 7.8 7.8-1.8 1.9Z"/><path d="M22.6 45.7c-.5.5-1.1.7-1.4.4l-3.4-3.4c-.3-.3-.1-.9.4-1.4l1.8-1.8 4.4 4.4-1.8 1.8ZM20.9 48.2c-.3.3-1 .3-1.3 0l-3.9-3.9c-.3-.3-.2-.9.1-1.2l1.2-1.2 5.1 5.1-1.2 1.2Z"/><path d="M20.1 47.4c-.3.3-.9.4-1.1.2l-2.7-2.7c-.2-.2-.1-.7.3-1l1.2-1.2 3.5 3.5-1.2 1.2ZM61.8 2.2S56.4 2 49.1 4.8l10.1 10.1C62 7.6 61.8 2.2 61.8 2.2Z"/><path d="M61.8 2.2s-4.3.9-10.8 4.6l6.2 6.2c3.7-6.5 4.6-10.8 4.6-10.8ZM43.5 25.5a5 5 0 1 0 0-10 5 5 0 0 0 0 10Z"/><path d="M43.5 23.8a3.3 3.3 0 1 0 0-6.6 3.3 3.3 0 0 0 0 6.6ZM33.5 35.5a5 5 0 1 0 0-10 5 5 0 0 0 0 10Z"/><path d="M33.5 33.8a3.3 3.3 0 1 0 0-6.6 3.3 3.3 0 0 0 0 6.6ZM48.9 6.9c-.3.3-.9.3-1.2 0-.3-.3-.3-.9 0-1.2.3-.3.9-.3 1.2 0 .3.3.3.9 0 1.2Zm1.7 2.5a.8.8 0 1 0 0-1.6.8.8 0 0 0 0 1.6Zm2.4 2.4a.8.8 0 1 0 0-1.6.8.8 0 0 0 0 1.6Zm2.3 2.4a.8.8 0 1 0 0-1.6.8.8 0 0 0 0 1.6Zm2.4 2.3a.8.8 0 1 0 0-1.6.8.8 0 0 0 0 1.6Z"/></g><defs><clipPath id="a"><path d="M0 0h64v64H0z"/></clipPath></defs></symbol><symbol id="icon-window" viewBox="0 0 124 27"><path d="M51.36 21.385h-3.228L44.974 9.107l-3.186 12.278h-3.3L34.15 5.426h2.93l3.13 12.7 3.413-12.7h2.959L49.796 18.2 52.77 5.426h2.83l-4.238 15.959ZM59.74 6.59c0 .42-.145.759-.434 1.043l-.036.034a1.527 1.527 0 0 1-1.11.436c-.44 0-.81-.145-1.109-.436a1.435 1.435 0 0 1-.455-1.077c0-.436.157-.8.455-1.106a1.574 1.574 0 0 1 1.11-.436c.455 0 .825.145 1.123.45.287.294.443.641.455 1.042v.05Zm-2.93 14.795V9.892h2.617v11.493H56.81Zm15.347 0h-2.632v-6.401c0-1.673-.512-3.128-2.162-3.128s-2.688 1.513-2.688 3.04v6.489h-2.56V9.892h2.56v1.615h.043c.853-1.353 2.076-1.818 3.683-1.818 1.21 0 2.134.305 2.803 1.09.668.786.953 1.98.953 3.594v7.012Zm10.24 0v-1.484h-.042c-.81 1.397-2.475 1.717-3.627 1.717-3.442 0-4.708-2.735-4.708-5.645 0-1.934.47-3.477 1.408-4.626.953-1.164 2.219-1.673 3.797-1.673 2.461 0 3.13 1.397 3.13 1.397h.042V4.422h2.66v16.963h-2.66Zm.029-6.561c0-1.382-.868-2.967-2.717-2.967-2.105 0-2.93 1.876-2.93 4.043 0 1.892.768 3.594 2.774 3.623 1.943 0 2.827-1.882 2.858-3.458l.015-1.241Zm16.044.757c0 3.986-2.333 6.138-5.817 6.138-3.798 0-5.747-2.327-5.747-5.891 0-4.074 2.333-6.197 6.03-6.197 3.372 0 5.534 2.21 5.534 5.95Zm-2.731.087c0-1.775-.612-3.739-2.958-3.739-2.248 0-3.13 1.717-3.13 3.812 0 2.283 1.053 3.724 3.101 3.724 2.197 0 2.958-1.697 2.986-3.735v-.062Zm16.812 5.717h-2.887l-2.205-8.321-2.375 8.321h-2.802L99.009 9.921h2.746l2.133 8.903 2.503-8.903h2.575l2.233 8.89 2.076-8.89h2.518l-3.243 11.464Zm11.45-3.2c0 2.56-2.276 3.564-4.551 3.564-1.48 0-2.959-.582-2.959-.582v-2.72l.052.044c.256.21 1.439 1.107 3.02 1.12 1.223 0 1.778-.393 1.778-1.15.028-.595-.309-.928-.721-1.174l-.102-.058c-.298-.17-.732-.387-1.324-.63-.74-.32-1.295-.64-1.65-.946a2.847 2.847 0 0 1-.797-1.062 3.522 3.522 0 0 1-.299-1.396c0-2.066 1.693-3.535 4.381-3.535 1.778 0 2.546.45 2.546.45v2.561l-.057-.038c-.26-.173-1.372-.864-2.517-.864-.939 0-1.65.35-1.664 1.15 0 1.018 1.223 1.527 1.948 1.818 1.039.425 1.808.877 2.242 1.398l.034.042c.443.539.63 1.064.64 1.938v.07ZM0 0h12.417v12.7H0V0Zm13.782 0H26.2v12.7H13.782V0ZM0 14.097h12.417v12.7H0v-12.7Zm13.782 0H26.2v12.7H13.782v-12.7Z"/></symbol><symbol id="icon-x" viewBox="0 0 28 33"><path d="M3.217 8.697 21.6 27.082a1 1 0 0 0 1.415 0l1.767-1.768a1 1 0 0 0 0-1.414L6.4 5.515a1 1 0 0 0-1.415 0L3.217 7.283a1 1 0 0 0 0 1.414Z"/><path d="M6.399 27.082 24.783 8.697a1 1 0 0 0 0-1.414l-1.767-1.768a1 1 0 0 0-1.415 0L3.217 23.9a1 1 0 0 0 0 1.414l1.767 1.768a1 1 0 0 0 1.415 0Z"/></symbol><symbol id="icon-youtube" viewBox="0 0 14 10"><path fill-rule="evenodd" clip-rule="evenodd" d="M12 .875c.552.15.985.596 1.133 1.162C13.4 3.062 13.4 5.2 13.4 5.2s0 2.138-.268 3.163a1.625 1.625 0 0 1-1.131 1.163C11.003 9.8 7 9.8 7 9.8s-4.003 0-5-.274A1.625 1.625 0 0 1 .866 8.363C.6 7.34.6 5.2.6 5.2s0-2.138.267-3.163A1.623 1.623 0 0 1 2 .875C2.997.6 7 .6 7 .6s4.003 0 5 .275ZM5.8 3.4v4l3.2-2-3.2-2Z"/></symbol></svg>